<svg width="393" height="923" viewBox="0 0 393 923" fill="none" xmlns="http://www.w3.org/2000/svg">
<ellipse cx="470" cy="461.5" rx="470" ry="461.5" fill="#86E3CE"/>
<path opacity="0.2" d="M159.235 189.973C159.234 186.037 160.166 182.139 161.977 178.502C163.787 174.866 166.442 171.561 169.788 168.778C173.134 165.995 177.107 163.787 181.479 162.281C185.851 160.775 190.536 160 195.269 160H176.478C166.921 160 157.756 163.158 150.998 168.779C144.241 174.4 140.444 182.024 140.444 189.973C140.444 197.922 144.241 205.546 150.998 211.167C157.756 216.788 166.921 219.946 176.478 219.946H195.269C190.536 219.946 185.85 219.171 181.478 217.665C177.106 216.159 173.134 213.951 169.788 211.168C166.442 208.384 163.787 205.08 161.977 201.443C160.166 197.807 159.234 193.909 159.235 189.973Z" fill="#545454"/>
<path opacity="0.2" d="M141.79 301.795C141.79 297.858 142.722 293.961 144.532 290.324C146.343 286.687 148.997 283.383 152.343 280.6C155.69 277.817 159.662 275.609 164.034 274.103C168.406 272.597 173.092 271.821 177.824 271.822H159.034C149.477 271.822 140.312 274.98 133.554 280.601C126.796 286.222 123 293.845 123 301.795C123 309.744 126.796 317.368 133.554 322.989C140.312 328.61 149.477 331.767 159.034 331.767H177.824C173.092 331.768 168.406 330.993 164.034 329.486C159.662 327.98 155.69 325.773 152.343 322.989C148.997 320.206 146.343 316.902 144.532 313.265C142.722 309.628 141.79 305.731 141.79 301.795Z" fill="#545454"/>
<path opacity="0.2" d="M141.79 361.74C141.79 357.804 142.722 353.906 144.532 350.269C146.343 346.633 148.997 343.328 152.343 340.545C155.69 337.762 159.662 335.554 164.034 334.048C168.406 332.542 173.092 331.767 177.824 331.767H159.034C149.477 331.767 140.312 334.925 133.554 340.546C126.796 346.167 123 353.791 123 361.74C123 369.689 126.796 377.313 133.554 382.934C140.312 388.555 149.477 391.713 159.034 391.713H177.824C173.092 391.713 168.406 390.938 164.034 389.432C159.662 387.926 155.69 385.718 152.343 382.934C148.997 380.151 146.343 376.847 144.532 373.21C142.722 369.574 141.79 365.676 141.79 361.74Z" fill="#545454"/>
<path opacity="0.2" d="M228.324 271.821C221.981 269.315 216.839 265.054 213.748 259.743C210.656 254.432 209.8 248.389 211.321 242.611C212.841 236.833 216.648 231.667 222.111 227.965C227.575 224.263 234.368 222.247 241.37 222.251H222.314C215.312 222.247 208.518 224.263 203.055 227.965C197.591 231.667 193.785 236.833 192.264 242.611C190.744 248.389 191.6 254.432 194.691 259.743C197.783 265.054 202.924 269.315 209.267 271.821H228.324Z" fill="#545454"/>
<path opacity="0.2" d="M298.687 222.251V219.946H278.75V222.251H298.687Z" fill="#545454"/>
<path opacity="0.2" d="M141.79 470.68C141.79 466.668 142.722 462.696 144.532 458.989C146.343 455.283 148.997 451.915 152.343 449.078C155.69 446.241 159.662 443.991 164.034 442.456C168.406 440.921 173.092 440.131 177.824 440.131H159.034C149.477 440.131 140.312 443.35 133.554 449.079C126.796 454.808 123 462.578 123 470.68C123 478.782 126.796 486.552 133.554 492.282C140.312 498.011 149.477 501.229 159.034 501.229H177.824C173.092 501.23 168.406 500.44 164.034 498.905C159.662 497.369 155.69 495.119 152.343 492.282C148.997 489.445 146.343 486.077 144.532 482.371C142.722 478.664 141.79 474.692 141.79 470.68Z" fill="#545454"/>
<path opacity="0.2" d="M318.768 691.441C322.034 691.441 325.166 690.409 327.476 688.571C329.785 686.734 331.083 684.241 331.083 681.643C331.083 679.044 329.785 676.551 327.476 674.714C325.166 672.876 322.034 671.844 318.768 671.844H299.933C303.199 671.844 306.331 672.876 308.641 674.714C310.951 676.551 312.248 679.044 312.248 681.643C312.248 684.241 310.951 686.734 308.641 688.571C306.331 690.409 303.199 691.441 299.933 691.441H318.768Z" fill="#545454"/>
<path opacity="0.2" d="M241.37 440.131C234.328 440.133 227.498 438.148 222.02 434.506C216.542 430.864 212.748 425.786 211.271 420.121C209.794 414.455 210.723 408.543 213.904 403.373C217.085 398.203 222.325 394.087 228.749 391.713H209.692C203.268 394.087 198.029 398.203 194.848 403.373C191.667 408.543 190.737 414.455 192.214 420.121C193.691 425.786 197.485 430.864 202.963 434.506C208.441 438.148 215.271 440.133 222.314 440.131H241.37Z" fill="#545454"/>
<path opacity="0.2" d="M193.142 645.129C193.142 641.781 193.938 638.464 195.485 635.37C197.032 632.277 199.299 629.465 202.158 627.097C205.016 624.729 208.41 622.851 212.145 621.57C215.88 620.288 219.883 619.629 223.926 619.63L298.687 616.509H279.63L204.87 619.63C196.705 619.63 188.875 622.316 183.102 627.098C177.329 631.88 174.086 638.366 174.086 645.129C174.086 651.892 177.329 658.378 183.102 663.16C188.875 667.942 196.705 670.629 204.87 670.629L279.63 671.843H298.687L223.926 670.629C219.883 670.629 215.88 669.97 212.145 668.689C208.41 667.408 205.016 665.529 202.158 663.161C199.299 660.793 197.032 657.982 195.485 654.888C193.938 651.794 193.142 648.478 193.142 645.129Z" fill="#545454"/>
<path opacity="0.2" d="M178.634 813.601C178.632 810.178 179.471 806.791 181.099 803.643C182.727 800.496 185.111 797.654 188.106 795.289H178.531C168.851 795.289 159.567 792.112 152.723 786.457C145.878 780.803 142.032 773.133 142.032 765.136C142.032 757.139 145.878 749.47 152.723 743.815C159.567 738.16 168.851 734.983 178.531 734.983H186.51C182.539 731.336 179.933 726.816 179.008 721.97C178.083 717.124 178.879 712.16 181.299 707.68C183.719 703.2 187.66 699.396 192.644 696.729C197.627 694.061 203.441 692.645 209.379 692.651L298.687 691.441H279.654L190.346 692.651C184.408 692.645 178.595 694.061 173.611 696.729C168.627 699.396 164.686 703.2 162.266 707.68C159.846 712.16 159.05 717.124 159.975 721.97C160.9 726.816 163.506 731.336 167.478 734.983H159.498C149.818 734.983 140.535 738.16 133.69 743.815C126.845 749.47 123 757.139 123 765.136C123 773.133 126.845 780.803 133.69 786.457C140.535 792.112 149.818 795.289 159.498 795.289H169.074C164.643 798.794 161.584 803.315 160.291 808.27C158.998 813.224 159.53 818.384 161.819 823.087C164.107 827.789 168.047 831.818 173.132 834.654C178.216 837.49 184.211 839.004 190.346 839H209.379C205.341 839 201.343 838.344 197.613 837.067C193.882 835.791 190.493 833.92 187.638 831.562C184.783 829.203 182.518 826.403 180.973 823.321C179.428 820.239 178.633 816.936 178.634 813.601Z" fill="#545454"/>
<path opacity="0.2" d="M193.142 555.027C193.142 551.237 194.203 547.496 196.245 544.089C198.287 540.682 201.257 537.698 204.928 535.362C198.704 531.404 194.597 525.647 193.461 519.29C192.326 512.932 194.249 506.464 198.83 501.229H179.774C175.192 506.464 173.269 512.932 174.405 519.29C175.541 525.647 179.648 531.404 185.872 535.362C180.833 538.573 177.151 542.982 175.341 547.975C173.531 552.968 173.682 558.295 175.773 563.215C177.864 568.134 181.792 572.401 187.007 575.419C192.223 578.438 198.467 580.058 204.87 580.054L279.63 581.926H298.687L223.926 580.054C219.883 580.055 215.88 579.408 212.145 578.15C208.41 576.892 205.016 575.049 202.158 572.725C199.299 570.401 197.032 567.642 195.485 564.605C193.938 561.568 193.142 558.314 193.142 555.027Z" fill="#545454"/>
<path opacity="0.2" d="M336.625 616.51C342.094 616.51 347.34 614.688 351.208 611.445C355.076 608.202 357.249 603.804 357.249 599.218C357.249 594.632 355.076 590.233 351.208 586.99C347.34 583.748 342.094 581.926 336.625 581.926H317.377C322.847 581.926 328.093 583.748 331.961 586.99C335.828 590.233 338.001 594.632 338.001 599.218C338.001 603.804 335.828 608.202 331.961 611.445C328.093 614.688 322.847 616.51 317.377 616.51H336.625Z" fill="#545454"/>
<path d="M333.575 334.073V328.309H293.703V334.073H333.575Z" fill="#FAC87B"/>
<path d="M354.757 448.2V442.436H313.639V448.2H354.757Z" fill="#FAC87B"/>
<path d="M331.083 767.527V761.763H291.211V767.527H331.083Z" fill="#FAC87B"/>
<path d="M199.006 304.1V297.184H159.134V304.1H199.006Z" fill="#FAC87B"/>
<path d="M267.887 550.54L272.059 545.572L239.499 527.012L235.327 531.98L267.887 550.54Z" fill="#FAC87B"/>
<path d="M330.443 230.653L324.693 226.905L300.126 252.486L305.876 256.235L330.443 230.653Z" fill="#FAC87B"/>
<path d="M289.372 164.201L283.622 160.453L259.055 186.034L264.805 189.782L289.372 164.201Z" fill="#FAC87B"/>
<path d="M425.779 357.129V351.365H385.907V357.129H425.779Z" fill="#FFFEFA"/>
<path d="M221.435 191.125V185.361H182.808V191.125H221.435Z" fill="#FFFEFA"/>
<path d="M235.141 764.068V758.304H195.268V764.068H235.141Z" fill="#FFFEFA"/>
<path d="M344.534 507.712L347.822 502.312L312.433 487.684L309.145 493.084L344.534 507.712Z" fill="#FFFEFA"/>
<path d="M369.93 388.518L368.695 382.318L332.746 395.509L333.981 401.709L369.93 388.518Z" fill="#FFFEFA"/>
<path d="M197.894 479.925L201.182 474.525L165.793 459.897L162.505 465.296L197.894 479.925Z" fill="#FFFEFA"/>
<path d="M263.88 813.372L267.168 807.973L231.779 793.344L228.491 798.744L263.88 813.372Z" fill="#FFFEFA"/>
<path d="M278.371 396.884L272.885 392.877L246.619 417.286L252.105 421.293L278.371 396.884Z" fill="#FFFEFA"/>
<path d="M383.952 674.761L378.466 670.754L352.2 695.163L357.686 699.17L383.952 674.761Z" fill="#FFFEFA"/>
<path d="M299.118 365.611V361H258V365.611H299.118Z" fill="#FFFEFA"/>
<path d="M329.142 743.651L332.007 738.091L295.562 725.343L292.697 730.903L329.142 743.651Z" fill="#FFFEFA"/>
<path d="M290.269 281.943L286.603 276.711L252.314 293.021L255.98 298.253L290.269 281.943Z" fill="#FFFEFA"/>
<path d="M318.131 627.473L314.465 622.241L280.176 638.551L283.842 643.783L318.131 627.473Z" fill="#FFFEFA"/>
<path d="M367.217 206.112V200.348H327.345V206.112H367.217Z" fill="#FFFEFA"/>
<path opacity="0.2" d="M363.112 502.5C363.082 496.805 364.317 491.177 366.721 486.044C369.126 480.911 372.639 476.408 376.992 472.876C369.55 466.966 364.615 458.341 363.212 448.794C361.81 439.246 364.049 429.513 369.464 421.619L346.773 421.737C341.358 429.631 339.119 439.365 340.521 448.912C341.923 458.459 346.859 467.084 354.301 472.994C348.326 477.85 343.977 484.499 341.861 492.013C339.744 499.527 339.966 507.533 342.494 514.913C345.023 522.293 349.732 528.68 355.967 533.184C362.201 537.688 369.649 540.084 377.272 540.039L466.305 542.387L488.997 542.269L399.963 539.921C395.149 539.946 390.377 538.999 385.92 537.132C381.463 535.265 377.408 532.516 373.986 529.041C370.563 525.566 367.842 521.434 365.976 516.88C364.111 512.326 363.137 507.44 363.112 502.5Z" fill="#545454"/>
<path opacity="0.2" d="M360.822 705.81C360.802 702.147 361.521 698.517 362.937 695.126C364.352 691.735 366.438 688.649 369.073 686.046C371.709 683.442 374.843 681.372 378.296 679.952C381.75 678.533 385.456 677.793 389.202 677.774L458.461 674L440.802 674.092L371.543 677.866C363.978 677.905 356.738 680.881 351.415 686.139C346.093 691.397 343.124 698.506 343.163 705.902C343.201 713.298 346.244 720.376 351.621 725.578C356.997 730.78 364.268 733.68 371.834 733.641L441.117 734.608L458.776 734.516L389.493 733.549C385.746 733.569 382.033 732.867 378.565 731.484C375.096 730.1 371.941 728.063 369.278 725.487C366.616 722.911 364.499 719.847 363.048 716.471C361.597 713.095 360.84 709.472 360.822 705.81Z" fill="#545454"/>
</svg>
