<svg width="394" height="739" viewBox="0 0 394 739" fill="none" xmlns="http://www.w3.org/2000/svg">
<ellipse cx="41" cy="369.5" rx="353" ry="369.5" fill="#86E3CE"/>
<path opacity="0.2" d="M145.92 630C145.92 633.414 145.172 636.795 143.719 639.95C142.266 643.105 140.135 645.971 137.45 648.385C134.764 650.8 131.576 652.715 128.067 654.021C124.559 655.328 120.798 656 117 656H132.08C139.75 656 147.106 653.261 152.53 648.385C157.953 643.509 161 636.896 161 630C161 623.104 157.953 616.491 152.53 611.615C147.106 606.739 139.75 604 132.08 604H117C120.798 604 124.559 604.672 128.067 605.978C131.576 607.285 134.764 609.2 137.45 611.615C140.135 614.029 142.266 616.895 143.719 620.05C145.172 623.205 145.92 626.586 145.92 630Z" fill="#545454"/>
<path opacity="0.2" d="M159.92 533C159.92 536.414 159.172 539.796 157.719 542.95C156.266 546.105 154.135 548.971 151.45 551.385C148.764 553.8 145.576 555.715 142.067 557.021C138.559 558.328 134.798 559 131 559H146.08C153.75 559 161.106 556.261 166.53 551.385C171.953 546.509 175 539.896 175 533C175 526.104 171.953 519.491 166.53 514.615C161.106 509.739 153.75 507 146.08 507H131C134.798 507 138.559 507.672 142.067 508.979C145.576 510.285 148.764 512.2 151.45 514.615C154.135 517.029 156.266 519.895 157.719 523.05C159.172 526.205 159.92 529.586 159.92 533Z" fill="#545454"/>
<path opacity="0.2" d="M159.92 481C159.92 484.415 159.172 487.796 157.719 490.95C156.266 494.105 154.135 496.971 151.45 499.385C148.764 501.8 145.576 503.715 142.067 505.021C138.559 506.328 134.798 507 131 507H146.08C153.75 507 161.106 504.261 166.53 499.385C171.953 494.509 175 487.896 175 481C175 474.104 171.953 467.491 166.53 462.615C161.106 457.739 153.75 455 146.08 455H131C134.798 455 138.559 455.672 142.067 456.979C145.576 458.285 148.764 460.2 151.45 462.615C154.135 465.029 156.266 467.896 157.719 471.05C159.172 474.205 159.92 477.586 159.92 481Z" fill="#545454"/>
<path opacity="0.2" d="M90.4705 559C95.561 561.174 99.6876 564.87 102.169 569.477C104.65 574.084 105.337 579.327 104.116 584.339C102.896 589.351 99.8411 593.832 95.4564 597.043C91.0716 600.255 85.6193 602.003 80 602H95.2941C100.913 602.003 106.366 600.255 110.75 597.043C115.135 593.832 118.19 589.351 119.411 584.339C120.631 579.327 119.944 574.084 117.463 569.477C114.982 564.87 110.855 561.174 105.765 559H90.4705Z" fill="#545454"/>
<path opacity="0.2" d="M34 602V604H50V602H34Z" fill="#545454"/>
<path opacity="0.2" d="M159.92 386.5C159.92 389.98 159.172 393.426 157.719 396.641C156.266 399.857 154.135 402.778 151.45 405.239C148.764 407.7 145.576 409.652 142.067 410.983C138.559 412.315 134.798 413 131 413H146.08C153.75 413 161.106 410.208 166.53 405.238C171.953 400.269 175 393.528 175 386.5C175 379.472 171.953 372.731 166.53 367.762C161.106 362.792 153.75 360 146.08 360H131C134.798 360 138.559 360.685 142.067 362.017C145.576 363.348 148.764 365.3 151.45 367.761C154.135 370.222 156.266 373.143 157.719 376.359C159.172 379.574 159.92 383.02 159.92 386.5Z" fill="#545454"/>
<path opacity="0.2" d="M17.8837 195C15.2624 195 12.7485 195.896 10.8949 197.49C9.04139 199.084 8 201.246 8 203.5C8 205.754 9.04139 207.916 10.8949 209.51C12.7485 211.104 15.2624 212 17.8837 212H33C30.3787 212 27.8647 211.104 26.0112 209.51C24.1576 207.916 23.1162 205.754 23.1162 203.5C23.1162 201.246 24.1576 199.084 26.0112 197.49C27.8647 195.896 30.3787 195 33 195H17.8837Z" fill="#545454"/>
<path opacity="0.2" d="M80 413C85.6519 412.998 91.1336 414.72 95.5299 417.879C99.9263 421.038 102.971 425.443 104.157 430.358C105.342 435.273 104.596 440.4 102.043 444.885C99.4902 449.37 95.285 452.94 90.1294 455H105.423C110.579 452.94 114.784 449.37 117.337 444.885C119.89 440.4 120.636 435.273 119.451 430.358C118.265 425.443 115.22 421.038 110.824 417.879C106.428 414.72 100.946 412.998 95.2941 413H80Z" fill="#545454"/>
<path opacity="0.2" d="M118.706 235.173C118.706 238.078 118.068 240.955 116.826 243.638C115.585 246.322 113.765 248.761 111.471 250.815C109.176 252.869 106.453 254.498 103.455 255.61C100.457 256.721 97.2445 257.293 94 257.293L34 260H49.2941L109.294 257.293C115.847 257.293 122.131 254.962 126.764 250.814C131.397 246.666 134 241.04 134 235.173C134 229.307 131.397 223.68 126.764 219.532C122.131 215.384 115.847 213.053 109.294 213.053L49.2941 212H34L94 213.053C97.2445 213.053 100.457 213.625 103.455 214.736C106.453 215.848 109.176 217.477 111.471 219.531C113.765 221.585 115.585 224.024 116.826 226.708C118.068 229.392 118.706 232.268 118.706 235.173Z" fill="#545454"/>
<path opacity="0.2" d="M130.35 89.0328C130.351 92.0019 129.678 94.9402 128.371 97.6704C127.065 100.401 125.152 102.866 122.748 104.917H130.432C138.201 104.917 145.652 107.673 151.145 112.578C156.639 117.483 159.725 124.136 159.725 131.073C159.725 138.01 156.639 144.663 151.145 149.568C145.652 154.474 138.201 157.229 130.432 157.229H124.029C127.216 160.393 129.307 164.315 130.05 168.518C130.792 172.722 130.153 177.028 128.211 180.914C126.269 184.8 123.106 188.1 119.106 190.414C115.106 192.728 110.441 193.956 105.675 193.951L34 195H49.2749L120.95 193.951C125.716 193.956 130.381 192.728 134.381 190.414C138.381 188.1 141.544 184.8 143.486 180.914C145.428 177.028 146.067 172.722 145.325 168.518C144.582 164.315 142.491 160.393 139.303 157.229H145.707C153.476 157.229 160.927 154.474 166.42 149.568C171.914 144.663 175 138.01 175 131.073C175 124.136 171.914 117.483 166.42 112.578C160.927 107.673 153.476 104.917 145.707 104.917H138.023C141.578 101.876 144.033 97.9547 145.071 93.6571C146.109 89.3595 145.682 84.883 143.845 80.804C142.009 76.725 138.846 73.23 134.766 70.7699C130.685 68.3097 125.874 66.9968 120.95 67H105.675C108.915 66.9997 112.124 67.5692 115.118 68.6764C118.112 69.7835 120.832 71.4064 123.124 73.4524C125.415 75.4984 127.233 77.9273 128.473 80.6006C129.712 83.2739 130.35 86.1393 130.35 89.0328Z" fill="#545454"/>
<path opacity="0.2" d="M118.706 313.333C118.706 316.621 117.854 319.866 116.216 322.821C114.577 325.777 112.194 328.366 109.247 330.391C114.242 333.825 117.538 338.819 118.45 344.333C119.362 349.848 117.818 355.46 114.141 360H129.435C133.112 355.46 134.656 349.848 133.744 344.333C132.832 338.819 129.536 333.825 124.541 330.391C128.585 327.606 131.54 323.782 132.993 319.451C134.445 315.12 134.324 310.498 132.646 306.231C130.967 301.963 127.816 298.262 123.63 295.644C119.444 293.025 114.432 291.62 109.294 291.623L49.2941 290H34L94.0001 291.623C97.2446 291.623 100.457 292.184 103.455 293.275C106.453 294.366 109.176 295.965 111.471 297.981C113.765 299.997 115.585 302.391 116.826 305.025C118.067 307.659 118.706 310.482 118.706 313.333Z" fill="#545454"/>
<path opacity="0.2" d="M3.55247 260C-0.837523 260 -5.04771 261.58 -8.1519 264.393C-11.2561 267.206 -13 271.022 -13 275C-13 278.978 -11.2561 282.794 -8.1519 285.607C-5.04771 288.42 -0.837523 290 3.55247 290H19C14.61 290 10.3998 288.42 7.29564 285.607C4.19145 282.794 2.44743 278.978 2.44743 275C2.44743 271.022 4.19145 267.206 7.29564 264.393C10.3998 261.58 14.61 260 19 260H3.55247Z" fill="#545454"/>
<path d="M6 505L6 510H38V505H6Z" fill="#95B8F6"/>
<path d="M-11 406V411H22V406H-11Z" fill="#95B8F6"/>
<path d="M8 129V134H40V129H8Z" fill="#95B8F6"/>
<path d="M114 531V537H146V531H114Z" fill="#95B8F6"/>
<path d="M58.7192 317.225L55.3711 321.534L81.5023 337.634L84.8504 333.325L58.7192 317.225Z" fill="#95B8F6"/>
<path d="M8.51328 594.712L13.1279 597.963L32.8448 575.772L28.2301 572.521L8.51328 594.712Z" fill="#95B8F6"/>
<path d="M41.4762 652.356L46.0908 655.607L65.8076 633.417L61.193 630.166L41.4762 652.356Z" fill="#95B8F6"/>
<path d="M96 629V634H127V629H96Z" fill="#FFFEFA"/>
<path d="M85 132V137H117V132H85Z" fill="#FFFEFA"/>
<path d="M-2.79564 354.377L-5.43457 359.061L22.9672 371.75L25.6062 367.066L-2.79564 354.377Z" fill="#FFFEFA"/>
<path d="M114.893 378.48L112.254 383.164L140.656 395.853L143.295 391.17L114.893 378.48Z" fill="#FFFEFA"/>
<path d="M61.9347 89.2305L59.2959 93.9141L87.6977 106.603L90.3365 101.92L61.9347 89.2305Z" fill="#FFFEFA"/>
<path d="M50.3049 450.514L54.708 453.99L75.7881 432.817L71.3849 429.341L50.3049 450.514Z" fill="#FFFEFA"/>
<path d="M-11 446V450H22V446H-11Z" fill="#FFFEFA"/>
<path d="M9.55839 149.711L7.25879 154.534L36.5081 165.592L38.8077 160.769L9.55839 149.711Z" fill="#FFFEFA"/>
<path d="M40.756 550.221L43.6982 554.759L71.2172 540.611L68.2749 536.073L40.756 550.221Z" fill="#FFFEFA"/>
<path d="M18.3947 250.49L21.3369 255.028L48.8558 240.88L45.9136 236.342L18.3947 250.49Z" fill="#FFFEFA"/>
<path d="M-21 616V621H11V616H-21Z" fill="#FFFEFA"/>
</svg>
