<svg width="273" height="151" viewBox="0 0 273 151" fill="none" xmlns="http://www.w3.org/2000/svg">
<path d="M115.767 53.7265C122.486 42.5638 125.092 31.8048 121.588 29.6955C118.084 27.5862 109.796 34.9254 103.077 46.088C96.358 57.2507 93.7519 68.0097 97.2562 70.119C100.761 72.2283 109.048 64.8892 115.767 53.7265Z" fill="#2F2E41"/>
<path d="M69.2255 130.498C95.2831 130.498 116.407 109.374 116.407 83.3163C116.407 57.2587 95.2831 36.1348 69.2255 36.1348C43.1679 36.1348 22.0439 57.2587 22.0439 83.3163C22.0439 109.374 43.1679 130.498 69.2255 130.498Z" fill="#2F2E41"/>
<path d="M62.0582 120.345H47.7246V146.026H62.0582V120.345Z" fill="#2F2E41"/>
<path d="M90.7252 120.345H76.3916V146.026H90.7252V120.345Z" fill="#2F2E41"/>
<path d="M59.6693 150.804C66.2662 150.804 71.614 148.799 71.614 146.325C71.614 143.851 66.2662 141.846 59.6693 141.846C53.0724 141.846 47.7246 143.851 47.7246 146.325C47.7246 148.799 53.0724 150.804 59.6693 150.804Z" fill="#2F2E41"/>
<path d="M88.3363 150.207C94.9332 150.207 100.281 148.201 100.281 145.727C100.281 143.253 94.9332 141.248 88.3363 141.248C81.7394 141.248 76.3916 143.253 76.3916 145.727C76.3916 148.201 81.7394 150.207 88.3363 150.207Z" fill="#2F2E41"/>
<path d="M70.4193 87.4968C79.325 87.4968 86.5446 80.2772 86.5446 71.3714C86.5446 62.4656 79.325 55.2461 70.4193 55.2461C61.5135 55.2461 54.2939 62.4656 54.2939 71.3714C54.2939 80.2772 61.5135 87.4968 70.4193 87.4968Z" fill="#FFFEFA"/>
<path d="M70.4191 76.7473C73.3877 76.7473 75.7942 74.3408 75.7942 71.3722C75.7942 68.4036 73.3877 65.9971 70.4191 65.9971C67.4505 65.9971 65.0439 68.4036 65.0439 71.3722C65.0439 74.3408 67.4505 76.7473 70.4191 76.7473Z" fill="#3F3D56"/>
<path d="M23.4573 39.4385C19.6476 22.3769 31.8256 5.13692 50.6577 0.931882C69.4898 -3.27315 87.8446 7.14913 91.6543 24.2107C95.464 41.2722 82.9833 47.5648 64.1512 51.7698C45.3191 55.9749 27.267 56.5 23.4573 39.4385Z" fill="#86E3CE"/>
<path d="M27.1547 94.3782C36.3674 85.1655 41.4913 75.3525 38.5991 72.4603C35.707 69.5681 25.894 74.692 16.6812 83.9047C7.46842 93.1175 2.34457 102.931 5.23675 105.823C8.12892 108.715 17.9419 103.591 27.1547 94.3782Z" fill="#2F2E41"/>
<path d="M46.0498 100.338C46.0498 104.955 57.9399 114.074 71.1337 114.074C84.3274 114.074 96.698 101.073 96.698 96.4556C96.698 91.8378 84.3274 97.3515 71.1337 97.3515C57.9399 97.3515 46.0498 95.7198 46.0498 100.338Z" fill="#FFFEFA"/>
<path d="M165.494 75.5059C169.032 73.4528 166.598 62.6535 160.058 51.3851C153.518 40.1167 145.348 32.6463 141.81 34.6994C138.273 36.7526 140.707 47.5518 147.247 58.8202C153.787 70.0886 161.957 77.5591 165.494 75.5059Z" fill="#2F2E41"/>
<path d="M203.044 130.498C229.102 130.498 250.225 109.374 250.225 83.3163C250.225 57.2587 229.102 36.1348 203.044 36.1348C176.986 36.1348 155.862 57.2587 155.862 83.3163C155.862 109.374 176.986 130.498 203.044 130.498Z" fill="#2F2E41"/>
<path d="M210.211 146.026H224.545V120.345H210.211V146.026Z" fill="#2F2E41"/>
<path d="M181.543 146.026H195.877V120.345H181.543V146.026Z" fill="#2F2E41"/>
<path d="M212.6 150.804C219.197 150.804 224.545 148.799 224.545 146.325C224.545 143.851 219.197 141.846 212.6 141.846C206.003 141.846 200.655 143.851 200.655 146.325C200.655 148.799 206.003 150.804 212.6 150.804Z" fill="#2F2E41"/>
<path d="M183.933 150.207C190.53 150.207 195.878 148.201 195.878 145.727C195.878 143.253 190.53 141.248 183.933 141.248C177.336 141.248 171.988 143.253 171.988 145.727C171.988 148.201 177.336 150.207 183.933 150.207Z" fill="#2F2E41"/>
<path d="M201.85 87.4968C210.756 87.4968 217.975 80.2772 217.975 71.3714C217.975 62.4656 210.756 55.2461 201.85 55.2461C192.944 55.2461 185.725 62.4656 185.725 71.3714C185.725 80.2772 192.944 87.4968 201.85 87.4968Z" fill="#FFFEFA"/>
<path d="M201.85 76.7473C204.818 76.7473 207.225 74.3408 207.225 71.3722C207.225 68.4036 204.818 65.9971 201.85 65.9971C198.881 65.9971 196.475 68.4036 196.475 71.3722C196.475 74.3408 198.881 76.7473 201.85 76.7473Z" fill="#3F3D56"/>
<path d="M248.812 39.4385C252.621 22.3769 240.443 5.13692 221.611 0.931882C202.779 -3.27315 184.424 7.14913 180.615 24.2107C176.805 41.2722 189.286 47.5648 208.118 51.7698C226.95 55.9749 245.002 56.5 248.812 39.4385Z" fill="#95B8F6"/>
<path d="M267.032 105.823C269.924 102.931 264.8 93.1178 255.587 83.905C246.374 74.6922 236.562 69.5684 233.669 72.4606C230.777 75.3527 235.901 85.1657 245.114 94.3785C254.327 103.591 264.14 108.715 267.032 105.823Z" fill="#2F2E41"/>
<path d="M226.22 100.338C226.22 104.955 214.329 114.074 201.136 114.074C187.942 114.074 175.571 101.073 175.571 96.4556C175.571 91.8378 187.942 97.3515 201.136 97.3515C214.329 97.3515 226.22 95.7198 226.22 100.338Z" fill="#FFFEFA"/>
</svg>
