<svg width="1280" height="1215" viewBox="0 0 1280 1215" fill="none" xmlns="http://www.w3.org/2000/svg">
<path d="M1050.59 202.69C1042.54 203.255 1038.37 212.408 1039.17 220.086C1039.97 227.765 1043.92 234.957 1044.91 242.621C1045.27 246.453 1045.26 250.3 1044.87 254.111C1044.24 263.26 1043.57 272.564 1040.17 281.073C1036.95 289.146 1031.4 296.131 1025.53 302.666C1014.15 315.318 1001.32 326.703 987.256 336.614" stroke="#2F2E41" stroke-width="2"/>
<path d="M1128.14 134.636C1120.41 165.568 1081.58 208.316 1048.89 200.15C1016.21 191.984 1002.05 135.997 1009.77 105.065C1013.49 90.2109 1023.28 77.523 1037 69.7924C1050.73 62.0619 1067.25 59.9219 1082.95 63.8434C1098.64 67.7648 1112.22 77.4263 1120.7 90.7026C1129.17 103.979 1131.85 119.782 1128.14 134.636Z" fill="#86E3CE"/>
<path d="M1053.25 206.974C1050.02 203.714 1046.22 202.764 1041.84 204.124L1044.54 193.327L1055.95 196.177L1053.25 206.974Z" fill="#86E3CE"/>
<path d="M1043.28 198.504C1044.84 199.797 1046.69 200.725 1048.68 201.214C1050.66 201.703 1052.73 201.737 1054.72 201.315" stroke="#2F2E41" stroke-width="2"/>
<path opacity="0.4" d="M1095.91 116.549C1102.81 118.271 1109.98 113.322 1111.93 105.496C1113.89 97.6701 1109.89 89.93 1103 88.2083C1096.1 86.4866 1088.93 91.4352 1086.98 99.2614C1085.02 107.088 1089.02 114.828 1095.91 116.549Z" fill="white"/>
<path d="M243.666 201.338C250.725 203.746 252.533 213.617 250.209 220.902C247.886 228.188 242.844 234.272 240.361 241.501C239.232 245.146 238.436 248.892 237.984 252.69C236.628 261.736 235.271 270.942 236.52 280.007C237.706 288.607 241.19 296.684 245.06 304.398C252.556 319.335 261.62 333.376 272.09 346.268" stroke="#2F2E41" stroke-width="2"/>
<path d="M188.739 117.214C189.147 149.094 214.831 199.654 245.71 199.259C276.589 198.863 300.97 147.662 300.562 115.782C300.365 100.472 294.287 85.8654 283.663 75.1744C273.039 64.4833 258.74 58.5838 243.911 58.7737C229.083 58.9636 214.939 65.2274 204.592 76.187C194.246 87.1467 188.543 101.905 188.739 117.214Z" fill="#95B8F6"/>
<path d="M240.393 204.892C243.955 202.465 247.548 202.419 251.171 204.754L251.028 193.626L240.25 193.764L240.393 204.892Z" fill="#95B8F6"/>
<path d="M251.068 198.955C249.404 199.852 247.558 200.328 245.681 200.344C243.804 200.36 241.949 199.916 240.27 199.047" stroke="#2F2E41" stroke-width="2"/>
<path opacity="0.4" d="M221.286 107.059C214.775 107.142 209.414 100.671 209.31 92.6051C209.207 84.539 214.401 77.9326 220.912 77.8492C227.422 77.7658 232.784 84.2371 232.887 92.3031C232.991 100.369 227.796 106.976 221.286 107.059Z" fill="white"/>
<path d="M36.4456 112.531C43.3191 147.026 82.3906 196.483 117.055 189.576C151.72 182.668 168.851 122.013 161.978 87.5176C158.677 70.9521 148.899 56.3827 134.794 47.0146C120.689 37.6464 103.413 34.2469 86.7661 37.5638C70.1195 40.8807 55.4659 50.6424 46.029 64.7014C36.5921 78.7604 33.1448 95.9651 36.4456 112.531Z" fill="#FA7865"/>
<path d="M115.428 192.958C123.818 194.109 127.84 204.487 126.711 212.91C125.583 221.334 121.168 229.014 119.85 237.409C119.323 241.616 119.19 245.863 119.451 250.096C119.763 260.236 120.104 270.549 123.337 280.166C126.404 289.288 131.938 297.362 137.832 304.96C149.245 319.672 162.234 333.079 176.564 344.942" stroke="#2F2E41" stroke-width="2"/>
<path d="M112.343 196.632C115.764 193.333 119.687 192.551 124.112 194.287L121.767 182.518L109.998 184.863L112.343 196.632Z" fill="#FA7865"/>
<path d="M122.946 188.436C121.246 189.428 119.292 190.155 117.245 190.557C115.198 190.959 113.116 191.025 111.171 190.748" stroke="#2F2E41" stroke-width="2"/>
<path opacity="0.4" d="M71.1336 94.7206C78.4457 93.2636 82.9735 85.0571 81.2467 76.3909C79.5199 67.7247 72.1925 61.8805 64.8804 63.3375C57.5683 64.7945 53.0405 73.0009 54.7673 81.6671C56.494 90.3333 63.8215 96.1775 71.1336 94.7206Z" fill="white"/>
<path d="M1280.05 92.9189C1273.77 131.719 1232.38 188.571 1193.67 182.313C1154.96 176.054 1133.6 109.055 1139.87 70.2544C1142.88 51.6217 1153.15 34.9462 1168.43 23.8962C1183.7 12.8461 1202.73 8.32678 1221.32 11.3323C1239.91 14.3378 1256.54 24.622 1267.55 39.9224C1278.57 55.2229 1283.06 74.2863 1280.05 92.9189Z" fill="#FBD59B"/>
<path d="M1195.86 185.232C1186.56 186.847 1182.51 198.546 1184.11 207.865C1185.71 217.185 1190.95 225.547 1192.76 234.827C1193.52 239.483 1193.84 244.2 1193.72 248.916C1193.79 260.202 1193.83 271.682 1190.62 282.502C1187.58 292.767 1181.75 301.965 1175.49 310.649C1163.38 327.462 1149.46 342.889 1133.98 356.651" stroke="#2F2E41" stroke-width="2"/>
<path d="M1199.33 190.177C1195.3 186.552 1190.79 185.823 1185.82 187.992L1188.01 174.449L1201.52 176.634L1199.33 190.177Z" fill="#FBD59B"/>
<path d="M1187 180.939C1188.93 182.344 1191.16 183.27 1193.51 183.641C1195.87 184.012 1198.28 183.817 1200.54 183.072" stroke="#2F2E41" stroke-width="2"/>
<path opacity="0.4" d="M1241.01 74.4466C1249.17 75.7662 1257.07 68.8777 1258.66 59.0607C1260.25 49.2437 1254.92 40.2158 1246.76 38.8962C1238.59 37.5766 1230.69 44.4651 1229.1 54.282C1227.52 64.099 1232.85 73.127 1241.01 74.4466Z" fill="white"/>
<ellipse cx="648.5" cy="757.058" rx="1119.5" ry="457" fill="#95B8F6"/>
<path d="M712.269 239.061V315.152L692.154 355.735V355.74L691.516 357.021L638.263 353.504L617.791 352.15L570.279 349.011V257.992L617.791 259.332L639.038 259.933L692.791 261.451L712.269 239.061Z" fill="#86E3CE"/>
<path opacity="0.1" d="M712.27 243.551V315.153L707.355 325.067V325.071L702.315 335.232V335.236L692.154 355.736L693.29 279.645L693.52 264.296L703.182 253.606V253.603L707.394 248.943L712.27 243.551Z" fill="#545454"/>
<path d="M714.999 218.855V245.433L712.268 249.783L707.39 257.556L703.068 264.441L693.518 279.656L693.289 279.644L566.092 273.102V246.889L566.413 246.543L581.598 230.105L587.095 224.156L597.038 213.394L714.999 218.855Z" fill="#86E3CE"/>
<path opacity="0.1" d="M693.518 253.443V279.657L566.092 273.103V246.889L566.413 246.544L693.518 253.443Z" fill="#545454"/>
<path opacity="0.15" d="M715 218.855V245.433L693.52 279.656V253.442L715 218.855Z" fill="#545454"/>
<path d="M707.406 231.083L707.394 248.942L707.391 257.555L707.355 325.066V325.069L702.315 335.231L703.07 264.44L703.182 253.605V253.602L703.354 237.608L581.6 230.104L587.096 224.155L707.406 231.083Z" fill="#545454"/>
<path d="M647.646 231.961L639.115 250.488L639.039 259.933L638.263 353.504L617.792 352.15V249.255L628.714 231.961H647.646Z" fill="#545454"/>
<path d="M619.55 233.209C614.621 234.849 609.324 235.035 604.293 233.744C603.313 233.555 602.394 233.129 601.616 232.503C600.779 231.579 600.207 230.446 599.961 229.223C599.071 226.698 598.578 224.049 598.499 221.372C598.56 218.7 599.583 215.911 601.763 214.364C602.207 214.096 602.622 213.784 603.003 213.433C603.458 212.859 603.785 212.194 603.963 211.484C605.454 207.034 608.346 202.336 612.984 201.624C617.263 200.967 621.158 203.955 624.455 206.761L631.692 212.92C632.495 210.761 633.932 208.896 635.814 207.569C637.696 206.242 639.935 205.515 642.238 205.484C644.54 205.453 646.799 206.118 648.716 207.394C650.634 208.669 652.121 210.494 652.982 212.63C657.367 207.69 662.894 203.898 669.081 201.583C670.452 201.073 672.062 200.657 673.312 201.417C674.084 201.987 674.67 202.773 674.996 203.676C676.966 207.988 678.033 212.657 678.133 217.396C678.639 217.223 679.188 217.224 679.693 217.398C680.199 217.572 680.632 217.91 680.923 218.359C681.484 219.272 681.803 220.313 681.852 221.383C682.045 223.037 682.141 224.701 682.14 226.366C682.14 228.122 681.977 230.019 680.832 231.351C679.353 233.072 676.8 233.254 674.532 233.308C675.624 234.277 675.091 236.23 673.882 237.05C672.674 237.871 671.112 237.886 669.651 237.872C664.021 237.817 658.032 237.657 653.348 234.531C651.499 233.297 649.95 231.654 648.096 230.427C643.552 227.42 637.847 227.276 632.587 227.525C627.839 227.749 624.071 231.695 619.55 233.209Z" fill="#545454"/>
<path d="M618.519 231.961C618.519 231.961 571.553 238.514 565 266.912L574.83 265.456L581.747 277.834C581.747 277.834 589.029 250.165 610.509 243.611C631.99 237.058 639.636 235.966 639.636 235.966C639.636 235.966 654.563 239.607 668.033 282.932L675.679 272.373L689.15 275.286C689.15 275.286 679.32 241.427 652.742 231.961L618.519 231.961Z" fill="#545454"/>
<path d="M484.475 304.187C491.599 304.314 497.413 302.27 497.46 299.622C497.507 296.973 491.77 294.723 484.647 294.596C477.523 294.469 471.709 296.513 471.662 299.161C471.615 301.81 477.352 304.06 484.475 304.187Z" fill="#2F2E41"/>
<path d="M515.442 304.099C522.566 304.226 528.38 302.182 528.427 299.534C528.474 296.885 522.737 294.636 515.613 294.508C508.489 294.381 502.676 296.425 502.629 299.073C502.582 301.722 508.318 303.972 515.442 304.099Z" fill="#2F2E41"/>
<path d="M495.182 282.632C523.322 283.134 546.537 260.927 547.035 233.032C547.532 205.137 525.124 182.116 496.985 181.614C468.845 181.112 445.63 203.319 445.133 231.214C444.635 259.109 467.043 282.13 495.182 282.632Z" fill="#2F2E41"/>
<path d="M487.637 271.625L472.159 271.349L471.668 298.841L487.147 299.117L487.637 271.625Z" fill="#2F2E41"/>
<path d="M518.593 272.178L503.114 271.901L502.623 299.394L518.102 299.67L518.593 272.178Z" fill="#2F2E41"/>
<path d="M507.941 236.812C517.558 236.984 525.492 229.394 525.662 219.86C525.832 210.327 518.174 202.459 508.557 202.287C498.939 202.116 491.005 209.705 490.835 219.239C490.665 228.773 498.323 236.641 507.941 236.812Z" fill="white"/>
<path d="M520.614 221.503C522.911 219.305 522.961 215.663 520.727 213.37C518.492 211.077 514.82 211 512.524 213.199C510.227 215.397 510.177 219.039 512.411 221.332C514.645 223.625 518.318 223.702 520.614 221.503Z" fill="#3F3D56"/>
<path d="M456.785 247.556C460.637 234.14 460.316 222.291 456.067 221.091C451.818 219.891 445.251 229.794 441.398 243.209C437.546 256.625 437.868 268.474 442.117 269.674C446.365 270.874 452.933 260.971 456.785 247.556Z" fill="#2F2E41"/>
<path d="M507.359 247.355C516.713 247.522 525.589 241.776 525.501 246.719C525.412 251.663 516.394 265.424 507.04 265.257C497.686 265.09 489.43 255.178 489.518 250.235C489.606 245.291 498.005 247.188 507.359 247.355Z" fill="white"/>
<path d="M522.325 189.969L513.901 179.616L507.215 171.389L497.517 159.467L490.818 151.242L481.72 140.043C481.572 139.862 481.378 139.723 481.159 139.639C480.94 139.556 480.702 139.531 480.47 139.567C480.238 139.603 480.02 139.698 479.837 139.844C479.654 139.99 479.512 140.181 479.427 140.398L475.634 150.153L472.692 157.688L468.436 168.613L465.509 176.16L461.253 187.084L458.324 194.618L456.143 200.215C456.051 200.43 456.023 200.667 456.062 200.897C456.099 201.125 456.193 201.341 456.336 201.524C456.484 201.705 456.677 201.845 456.896 201.929C457.116 202.012 457.354 202.037 457.586 201.999L521.501 192.105C521.701 192.079 521.892 192.005 522.057 191.891C522.222 191.777 522.357 191.626 522.451 191.449C522.488 191.394 522.52 191.335 522.545 191.274C522.624 191.056 522.648 190.823 522.613 190.594C522.579 190.363 522.479 190.146 522.325 189.969Z" fill="#86E3CE"/>
<path d="M497.515 159.466L472.691 157.688L475.632 150.153L490.817 151.241L497.515 159.466Z" fill="#3F3D56"/>
<path d="M513.9 179.616L465.509 176.16L468.436 168.613L507.215 171.389L513.9 179.616Z" fill="#3F3D56"/>
<path d="M522.45 191.449C522.356 191.626 522.221 191.777 522.056 191.891C521.89 192.006 521.7 192.079 521.5 192.105L490.426 196.915L458.323 194.618L461.252 187.084L522.45 191.449Z" fill="#3F3D56"/>
<path d="M479.457 144.918C485.349 145.023 490.21 140.373 490.315 134.532C490.419 128.69 485.726 123.87 479.834 123.765C473.941 123.659 469.08 128.31 468.976 134.151C468.872 139.992 473.564 144.813 479.457 144.918Z" fill="#86E3CE"/>
<path d="M484.475 304.187C491.599 304.314 497.413 302.27 497.46 299.622C497.507 296.973 491.77 294.723 484.647 294.596C477.523 294.469 471.709 296.513 471.662 299.161C471.615 301.81 477.352 304.06 484.475 304.187Z" fill="#2F2E41"/>
<path d="M515.442 304.099C522.566 304.226 528.38 302.182 528.427 299.534C528.474 296.885 522.737 294.636 515.613 294.508C508.489 294.381 502.676 296.425 502.629 299.073C502.582 301.722 508.318 303.972 515.442 304.099Z" fill="#2F2E41"/>
<path d="M560.243 229.439C574.003 226.522 584.407 220.685 583.482 216.403C582.557 212.12 570.653 211.013 556.893 213.93C543.133 216.847 532.728 222.684 533.653 226.966C534.578 231.249 546.483 232.356 560.243 229.439Z" fill="#2F2E41"/>
<path d="M495.182 282.632C523.322 283.134 546.537 260.927 547.035 233.032C547.532 205.137 525.124 182.116 496.985 181.614C468.845 181.112 445.63 203.319 445.133 231.214C444.635 259.109 467.043 282.13 495.182 282.632Z" fill="#2F2E41"/>
<path d="M487.637 271.625L472.159 271.349L471.668 298.841L487.147 299.117L487.637 271.625Z" fill="#2F2E41"/>
<path d="M518.593 272.178L503.114 271.901L502.623 299.394L518.102 299.67L518.593 272.178Z" fill="#2F2E41"/>
<path d="M507.941 236.812C517.558 236.984 525.492 229.394 525.662 219.86C525.832 210.327 518.174 202.459 508.557 202.287C498.939 202.116 491.005 209.705 490.835 219.239C490.665 228.773 498.323 236.641 507.941 236.812Z" fill="white"/>
<path d="M520.614 221.503C522.911 219.305 522.961 215.663 520.727 213.37C518.492 211.077 514.82 211 512.524 213.199C510.227 215.397 510.177 219.039 512.411 221.332C514.645 223.625 518.318 223.702 520.614 221.503Z" fill="#3F3D56"/>
<path d="M456.785 247.556C460.637 234.14 460.316 222.291 456.067 221.091C451.818 219.891 445.251 229.794 441.398 243.209C437.546 256.625 437.868 268.474 442.117 269.674C446.365 270.874 452.933 260.971 456.785 247.556Z" fill="#2F2E41"/>
<path d="M507.359 247.355C516.713 247.522 525.589 241.776 525.501 246.719C525.412 251.663 516.394 265.424 507.04 265.257C497.686 265.09 489.43 255.178 489.518 250.235C489.606 245.291 498.005 247.188 507.359 247.355Z" fill="white"/>
<path d="M522.325 189.969L513.901 179.616L507.215 171.389L497.517 159.467L490.818 151.242L481.72 140.043C481.572 139.862 481.378 139.723 481.159 139.639C480.94 139.556 480.702 139.531 480.47 139.567C480.238 139.603 480.02 139.698 479.837 139.844C479.654 139.99 479.512 140.181 479.427 140.398L475.634 150.153L472.692 157.688L468.436 168.613L465.509 176.16L461.253 187.084L458.324 194.618L456.143 200.215C456.051 200.43 456.023 200.667 456.062 200.897C456.099 201.125 456.193 201.341 456.336 201.524C456.484 201.705 456.677 201.845 456.896 201.929C457.116 202.012 457.354 202.037 457.586 201.999L521.501 192.105C521.701 192.079 521.892 192.005 522.057 191.891C522.222 191.777 522.357 191.626 522.451 191.449C522.488 191.394 522.52 191.335 522.545 191.274C522.624 191.056 522.648 190.823 522.613 190.594C522.579 190.363 522.479 190.146 522.325 189.969Z" fill="#86E3CE"/>
<path d="M497.515 159.466L472.691 157.688L475.632 150.153L490.817 151.241L497.515 159.466Z" fill="#3F3D56"/>
<path d="M513.9 179.616L465.509 176.16L468.436 168.613L507.215 171.389L513.9 179.616Z" fill="#3F3D56"/>
<path d="M522.45 191.449C522.356 191.626 522.221 191.777 522.056 191.891C521.89 192.006 521.7 192.079 521.5 192.105L490.426 196.915L458.323 194.618L461.252 187.084L522.45 191.449Z" fill="#3F3D56"/>
<path d="M479.457 144.918C485.349 145.023 490.21 140.373 490.315 134.532C490.419 128.69 485.726 123.87 479.834 123.765C473.941 123.659 469.08 128.31 468.976 134.151C468.872 139.992 473.564 144.813 479.457 144.918Z" fill="#86E3CE"/>
</svg>
