<svg width="123" height="138" viewBox="0 0 123 138" fill="none" xmlns="http://www.w3.org/2000/svg">
<path d="M79.5613 137.653C85.583 137.653 90.4645 135.822 90.4645 133.564C90.4645 131.306 85.583 129.476 79.5613 129.476C73.5397 129.476 68.6582 131.306 68.6582 133.564C68.6582 135.822 73.5397 137.653 79.5613 137.653Z" fill="#2F2E41"/>
<path d="M53.3943 137.108C59.416 137.108 64.2975 135.277 64.2975 133.019C64.2975 130.761 59.416 128.931 53.3943 128.931C47.3727 128.931 42.4912 130.761 42.4912 133.019C42.4912 135.277 47.3727 137.108 53.3943 137.108Z" fill="#2F2E41"/>
<path d="M40.6877 73.2826C42.5523 70.0481 35.7114 62.611 25.4081 56.6713C15.1049 50.7317 5.24084 48.5388 3.37621 51.7733C1.51158 55.0078 8.35244 62.4449 18.6557 68.3845C28.959 74.3242 38.8231 76.5171 40.6877 73.2826Z" fill="#2F2E41"/>
<path d="M70.8388 119.118C94.6242 119.118 113.906 99.8362 113.906 76.0508C113.906 52.2653 94.6242 32.9834 70.8388 32.9834C47.0534 32.9834 27.7715 52.2653 27.7715 76.0508C27.7715 99.8362 47.0534 119.118 70.8388 119.118Z" fill="#2F2E41"/>
<path d="M90.4646 109.85H77.3809V133.291H90.4646V109.85Z" fill="#2F2E41"/>
<path d="M64.2966 109.85H51.2129V133.291H64.2966V109.85Z" fill="#2F2E41"/>
<path d="M60.7485 79.8662C68.8777 79.8662 75.4678 73.2762 75.4678 65.147C75.4678 57.0178 68.8777 50.4277 60.7485 50.4277C52.6193 50.4277 46.0293 57.0178 46.0293 65.147C46.0293 73.2762 52.6193 79.8662 60.7485 79.8662Z" fill="white"/>
<path d="M57.202 66.604C59.1245 64.6833 59.1368 61.5787 57.2296 59.6698C55.3224 57.7609 52.2178 57.7704 50.2954 59.6912C48.3729 61.6119 48.3606 64.7164 50.2678 66.6254C52.175 68.5343 55.2795 68.5247 57.202 66.604Z" fill="#3F3D56"/>
<path d="M75.4704 47.2555C58.2804 43.4172 46.888 37.6733 50.3655 22.0995C53.843 6.52568 70.5972 -2.98775 87.7872 0.850633C104.977 4.68901 116.093 20.4256 112.616 35.9995C109.138 51.5733 92.6603 51.0938 75.4704 47.2555Z" fill="#95B8F6"/>
<path d="M115.875 108.879C119.484 107.921 119.934 97.8259 116.881 86.3317C113.828 74.8375 108.428 66.2965 104.82 67.2549C101.211 68.2133 100.761 78.3081 103.814 89.8023C106.867 101.297 112.267 109.837 115.875 108.879Z" fill="#2F2E41"/>
<path d="M61.0818 88.8626C53.1751 88.8626 45.7617 83.8298 45.7617 88.0449C45.7617 92.26 53.1751 104.127 61.0818 104.127C68.9885 104.127 76.114 95.8035 76.114 91.5884C76.114 87.3732 68.9884 88.8626 61.0818 88.8626Z" fill="white"/>
</svg>
