<svg width="125" height="138" viewBox="0 0 125 138" fill="none" xmlns="http://www.w3.org/2000/svg">
<path d="M116.983 45.9421C121.229 34.8332 121.844 24.747 118.357 23.4141C114.869 22.0811 108.6 30.0061 104.354 41.115C100.108 52.2239 99.4932 62.3101 102.981 63.643C106.468 64.976 112.737 57.051 116.983 45.9421Z" fill="#2F2E41"/>
<path d="M70.8613 119.118C94.6467 119.118 113.929 99.8362 113.929 76.0507C113.929 52.2653 94.6467 32.9834 70.8613 32.9834C47.0758 32.9834 27.7939 52.2653 27.7939 76.0507C27.7939 99.8362 47.0758 119.118 70.8613 119.118Z" fill="#2F2E41"/>
<path d="M64.3201 109.851H51.2363V133.292H64.3201V109.851Z" fill="#2F2E41"/>
<path d="M90.4871 109.851H77.4033V133.292H90.4871V109.851Z" fill="#2F2E41"/>
<path d="M62.1395 137.654C68.1611 137.654 73.0426 135.823 73.0426 133.565C73.0426 131.307 68.1611 129.477 62.1395 129.477C56.1178 129.477 51.2363 131.307 51.2363 133.565C51.2363 135.823 56.1178 137.654 62.1395 137.654Z" fill="#2F2E41"/>
<path d="M88.3065 137.109C94.3281 137.109 99.2096 135.278 99.2096 133.02C99.2096 130.762 94.3281 128.932 88.3065 128.932C82.2848 128.932 77.4033 130.762 77.4033 133.02C77.4033 135.278 82.2848 137.109 88.3065 137.109Z" fill="#2F2E41"/>
<path d="M71.9517 79.8662C80.0809 79.8662 86.6709 73.2762 86.6709 65.147C86.6709 57.0178 80.0809 50.4277 71.9517 50.4277C63.8225 50.4277 57.2324 57.0178 57.2324 65.147C57.2324 73.2762 63.8225 79.8662 71.9517 79.8662Z" fill="#FFFEFA"/>
<path d="M71.9514 70.054C74.6611 70.054 76.8578 67.8573 76.8578 65.1476C76.8578 62.4379 74.6611 60.2412 71.9514 60.2412C69.2416 60.2412 67.0449 62.4379 67.0449 65.1476C67.0449 67.8573 69.2416 70.054 71.9514 70.054Z" fill="#3F3D56"/>
<path d="M29.0849 35.9994C25.6075 20.4256 36.7236 4.689 53.9135 0.850628C71.1034 -2.98774 87.8577 6.52571 91.3352 22.0995C94.8127 37.6733 83.4203 43.4172 66.2303 47.2555C49.0404 51.0938 32.5624 51.5732 29.0849 35.9994Z" fill="#86E3CE"/>
<path d="M41.8094 65.295C43.4093 61.9216 35.9955 55.0556 25.2501 49.9592C14.5047 44.8628 4.4968 43.466 2.89689 46.8394C1.29698 50.2127 8.71089 57.0787 19.4563 62.1751C30.2017 67.2715 40.2095 68.6683 41.8094 65.295Z" fill="#2F2E41"/>
<path d="M49.707 91.5874C49.707 95.8026 60.5604 104.126 72.6036 104.126C84.6469 104.126 95.9388 92.259 95.9388 88.0439C95.9388 83.8288 84.6469 88.8617 72.6036 88.8617C60.5604 88.8617 49.707 87.3723 49.707 91.5874Z" fill="#FFFEFA"/>
</svg>
