<svg width="161" height="174" viewBox="0 0 161 174" fill="none" xmlns="http://www.w3.org/2000/svg">
<path d="M66.68 129.688C89.0915 135.695 112.13 122.397 118.137 99.9857C124.145 77.5742 110.847 54.5359 88.4356 48.5282C66.0241 42.5206 42.9858 55.8185 36.9781 78.23C30.9705 100.642 44.2684 123.68 66.68 129.688Z" fill="#2F2E41"/>
<path d="M79.2986 145.283L92.0181 146.339L93.9097 123.55L81.1902 122.494L79.2986 145.283Z" fill="#2F2E41"/>
<path d="M53.8591 143.173L66.5786 144.229L68.4702 121.439L55.7507 120.384L53.8591 143.173Z" fill="#2F2E41"/>
<path d="M59.0731 149.473C64.3857 146.966 67.9306 143.32 66.9908 141.327C66.051 139.335 60.9824 139.752 55.6697 142.258C50.3571 144.764 46.8122 148.411 47.752 150.403C48.6918 152.395 53.7604 151.979 59.0731 149.473Z" fill="#2F2E41"/>
<path d="M83.9823 151.54C89.2949 149.034 92.8398 145.387 91.9 143.395C90.9601 141.403 85.8916 141.819 80.5789 144.325C75.2662 146.832 71.7214 150.478 72.6612 152.471C73.601 154.463 78.6696 154.046 83.9823 151.54Z" fill="#2F2E41"/>
<path d="M73.6596 92.2907C81.3192 94.344 89.1931 89.7991 91.2463 82.1394C93.2996 74.4798 88.7547 66.606 81.0951 64.5527C73.4354 62.4994 65.5616 67.0443 63.5083 74.704C61.4551 82.3636 65.9999 90.2375 73.6596 92.2907Z" fill="#FFFEFA"/>
<path d="M71.771 76.5439C74.3242 77.2283 76.9488 75.7133 77.6332 73.1601C78.3177 70.6069 76.8027 67.9823 74.2495 67.2978C71.6963 66.6134 69.0716 68.1284 68.3872 70.6816C67.7028 73.2348 69.2178 75.8594 71.771 76.5439Z" fill="#3F3D56"/>
<path d="M121.403 53.5427C126.04 38.6831 116.504 22.4875 100.102 17.3689C83.7002 12.2503 66.6447 20.1469 62.0074 35.0066C57.37 49.8662 67.9817 56.3694 84.3834 61.4881C100.785 66.6067 116.766 68.4023 121.403 53.5427Z" fill="#FA7865"/>
<path d="M60.6313 81.5052C62.3365 78.287 55.4083 71.275 45.157 65.8435C34.9056 60.412 25.2129 58.6178 23.5078 61.836C21.8027 65.0542 28.7308 72.0662 38.9822 77.4977C49.2336 82.9292 58.9262 84.7234 60.6313 81.5052Z" fill="#2F2E41"/>
<path d="M136.737 116.106C138.442 112.888 131.514 105.876 121.262 100.444C111.011 95.0126 101.318 93.2184 99.6132 96.4366C97.9081 99.6548 104.836 106.667 115.088 112.098C125.339 117.53 135.032 119.324 136.737 116.106Z" fill="#2F2E41"/>
<path d="M84.4161 108.088C84.3128 109.341 83.9636 110.562 83.3884 111.68C82.8132 112.798 82.0233 113.792 81.0638 114.605C80.1043 115.418 78.9941 116.034 77.7965 116.418C76.5989 116.801 75.3374 116.945 74.0842 116.841C72.8309 116.737 71.6104 116.387 70.4925 115.811C69.3745 115.236 68.381 114.445 67.5687 113.485C66.7563 112.525 66.1411 111.414 65.7582 110.217C65.3752 109.019 65.232 107.757 65.3368 106.504C65.7741 101.235 70.1358 100.499 75.4044 100.936C80.6729 101.373 84.8534 102.819 84.4161 108.088Z" fill="#FFFEFA"/>
</svg>
