<svg width="48" height="48" viewBox="0 0 48 48" fill="none" xmlns="http://www.w3.org/2000/svg">
<path d="M19.6403 14.3227C18.5692 15.3939 18.5692 17.1306 19.6403 18.2017L25.4588 24.0202L19.6403 29.8387C18.5692 30.9098 18.5692 32.6465 19.6403 33.7177C20.7115 34.7888 22.4482 34.7888 23.5193 33.7177L31.2773 25.9597C32.3484 24.8885 32.3484 23.1519 31.2773 22.0807L23.5193 14.3227C22.4482 13.2516 20.7115 13.2516 19.6403 14.3227Z" fill="#86E3CE"/>
<path fill-rule="evenodd" clip-rule="evenodd" d="M24 0C37.2548 0 48 10.7452 48 24C48 37.2548 37.2548 48 24 48C10.7452 48 0 37.2548 0 24C0 10.7452 10.7452 0 24 0ZM24 4.11428C34.9826 4.11428 43.8857 13.0174 43.8857 24C43.8857 34.9826 34.9826 43.8857 24 43.8857C13.0174 43.8857 4.11428 34.9826 4.11428 24C4.11428 13.0174 13.0174 4.11428 24 4.11428Z" fill="#86E3CE"/>
</svg>
