<svg width="48" height="48" viewBox="0 0 48 48" fill="none" xmlns="http://www.w3.org/2000/svg">
<path d="M28.3597 33.6773C29.4308 32.6061 29.4308 30.8694 28.3597 29.7983L22.5412 23.9798L28.3597 18.1613C29.4308 17.0902 29.4308 15.3535 28.3597 14.2823C27.2885 13.2112 25.5518 13.2112 24.4807 14.2823L16.7227 22.0403C15.6516 23.1115 15.6516 24.8481 16.7227 25.9193L24.4807 33.6773C25.5518 34.7484 27.2885 34.7484 28.3597 33.6773Z" fill="#86E3CE"/>
<path fill-rule="evenodd" clip-rule="evenodd" d="M24 48C10.7452 48 0 37.2548 0 24C0 10.7452 10.7452 0 24 0C37.2548 0 48 10.7452 48 24C48 37.2548 37.2548 48 24 48ZM24 43.8857C13.0174 43.8857 4.11429 34.9826 4.11429 24C4.11429 13.0174 13.0174 4.11429 24 4.11429C34.9826 4.11429 43.8857 13.0174 43.8857 24C43.8857 34.9826 34.9826 43.8857 24 43.8857Z" fill="#86E3CE"/>
</svg>
