<svg width="46" height="47" viewBox="0 0 46 47" fill="none" xmlns="http://www.w3.org/2000/svg">
<g filter="url(#filter0_d_1023_1384)">
<path fill-rule="evenodd" clip-rule="evenodd" d="M14.9421 0.117C16.9274 0.0212727 17.5604 0 22.6176 0C27.6749 0 28.3079 0.0230454 30.2915 0.117C32.2751 0.210955 33.6291 0.542455 34.8139 1.02286C36.0545 1.51391 37.18 2.2815 38.1109 3.27423C39.0587 4.24745 39.7899 5.42455 40.257 6.72573C40.7174 7.96664 41.0322 9.38482 41.1236 11.4589C41.215 13.5419 41.2353 14.2049 41.2353 19.5C41.2353 24.7969 41.2133 25.4599 41.1236 27.5393C41.0339 29.6134 40.7174 31.0316 40.257 32.2725C39.7899 33.5738 39.0575 34.7529 38.1109 35.7275C37.18 36.7203 36.0545 37.4861 34.8139 37.9754C33.6291 38.4575 32.2751 38.7873 30.2949 38.883C28.3079 38.9787 27.6749 39 22.6176 39C17.5604 39 16.9274 38.977 14.9421 38.883C12.9619 38.789 11.6078 38.4575 10.4231 37.9754C9.18065 37.486 8.05496 36.719 7.12438 35.7275C6.17722 34.7537 5.44425 33.5752 4.97658 32.2743C4.51791 31.0334 4.2031 29.6152 4.11171 27.5411C4.02031 25.4581 4 24.7951 4 19.5C4 14.2031 4.022 13.5401 4.11171 11.4625C4.20141 9.38482 4.51791 7.96664 4.97658 6.72573C5.44494 5.42469 6.17847 4.24624 7.12607 3.27245C8.05533 2.28062 9.17989 1.51292 10.4214 1.02286C11.6062 0.542455 12.9602 0.212727 14.9404 0.117H14.9421ZM30.1409 3.627C28.1776 3.53305 27.5886 3.51355 22.6176 3.51355C17.6467 3.51355 17.0577 3.53305 15.0944 3.627C13.2784 3.71386 12.2933 4.03118 11.6366 4.29886C10.7684 4.65341 10.1472 5.07355 9.49559 5.75605C8.8779 6.38546 8.40253 7.15168 8.10434 7.99855C7.84878 8.68636 7.54582 9.71809 7.46288 11.6202C7.37318 13.6766 7.35456 14.2935 7.35456 19.5C7.35456 24.7065 7.37318 25.3234 7.46288 27.3798C7.54582 29.2819 7.84878 30.3136 8.10434 31.0015C8.40223 31.847 8.87782 32.6146 9.49559 33.244C10.0964 33.891 10.8293 34.3891 11.6366 34.7011C12.2933 34.9688 13.2784 35.2861 15.0944 35.373C17.0577 35.467 17.645 35.4865 22.6176 35.4865C27.5903 35.4865 28.1776 35.467 30.1409 35.373C31.9569 35.2861 32.942 34.9688 33.5987 34.7011C34.4669 34.3466 35.0881 33.9265 35.7397 33.244C36.3575 32.6146 36.8331 31.847 37.131 31.0015C37.3865 30.3136 37.6895 29.2819 37.7724 27.3798C37.8621 25.3234 37.8807 24.7065 37.8807 19.5C37.8807 14.2935 37.8621 13.6766 37.7724 11.6202C37.6895 9.71809 37.3865 8.68636 37.131 7.99855C36.7924 7.08914 36.3913 6.43855 35.7397 5.75605C35.1387 5.10913 34.4072 4.61124 33.5987 4.29886C32.942 4.03118 31.9569 3.71386 30.1409 3.627ZM20.2397 25.5113C21.5677 26.0903 23.0465 26.1685 24.4234 25.7324C25.8004 25.2963 26.9901 24.3731 27.7893 23.1203C28.5885 21.8676 28.9477 20.3631 28.8056 18.8638C28.6634 17.3645 28.0286 15.9634 27.0097 14.8998C26.3602 14.2199 25.5748 13.6993 24.7102 13.3755C23.8455 13.0517 22.923 12.9327 22.0092 13.0271C21.0953 13.1215 20.2128 13.427 19.4252 13.9215C18.6376 14.416 17.9645 15.0872 17.4543 15.8869C16.9441 16.6866 16.6095 17.5948 16.4747 18.5462C16.3398 19.4976 16.4081 20.4684 16.6745 21.3889C16.9408 22.3093 17.3988 23.1564 18.0152 23.8693C18.6317 24.5821 19.3914 25.1429 20.2397 25.5113ZM15.851 12.4126C16.7396 11.4819 17.7945 10.7436 18.9556 10.2399C20.1166 9.73621 21.361 9.47695 22.6176 9.47695C23.8743 9.47695 25.1187 9.73621 26.2797 10.2399C27.4408 10.7436 28.4957 11.4819 29.3843 12.4126C30.2729 13.3434 30.9778 14.4483 31.4587 15.6643C31.9396 16.8804 32.1872 18.1838 32.1872 19.5C32.1872 20.8162 31.9396 22.1196 31.4587 23.3357C30.9778 24.5517 30.2729 25.6566 29.3843 26.5874C27.5897 28.467 25.1556 29.523 22.6176 29.523C20.0797 29.523 17.6456 28.467 15.851 26.5874C14.0563 24.7077 13.0481 22.1583 13.0481 19.5C13.0481 16.8417 14.0563 14.2923 15.851 12.4126ZM34.3095 10.9696C34.5297 10.7521 34.706 10.4904 34.828 10.2002C34.9499 9.91002 35.015 9.59714 35.0194 9.2801C35.0238 8.96307 34.9674 8.64833 34.8536 8.35453C34.7398 8.06072 34.5709 7.79381 34.3569 7.56961C34.1428 7.34542 33.888 7.16848 33.6075 7.04928C33.3269 6.93008 33.0264 6.87105 32.7238 6.87567C32.4211 6.88029 32.1224 6.94848 31.8453 7.07619C31.5682 7.2039 31.3184 7.38854 31.1107 7.61918C30.7067 8.06773 30.4855 8.66353 30.4941 9.2801C30.5027 9.89667 30.7403 10.4855 31.1566 10.9215C31.5729 11.3575 32.1351 11.6065 32.7238 11.6154C33.3124 11.6244 33.8813 11.3928 34.3095 10.9696Z" fill="#FFFEFA"/>
</g>
<defs>
<filter id="filter0_d_1023_1384" x="0" y="0" width="45.2354" height="47" filterUnits="userSpaceOnUse" color-interpolation-filters="sRGB">
<feFlood flood-opacity="0" result="BackgroundImageFix"/>
<feColorMatrix in="SourceAlpha" type="matrix" values="0 0 0 0 0 0 0 0 0 0 0 0 0 0 0 0 0 0 127 0" result="hardAlpha"/>
<feOffset dy="4"/>
<feGaussianBlur stdDeviation="2"/>
<feComposite in2="hardAlpha" operator="out"/>
<feColorMatrix type="matrix" values="0 0 0 0 0 0 0 0 0 0 0 0 0 0 0 0 0 0 0.25 0"/>
<feBlend mode="normal" in2="BackgroundImageFix" result="effect1_dropShadow_1023_1384"/>
<feBlend mode="normal" in="SourceGraphic" in2="effect1_dropShadow_1023_1384" result="shape"/>
</filter>
</defs>
</svg>
