<svg width="44" height="45" viewBox="0 0 44 45" fill="none" xmlns="http://www.w3.org/2000/svg">
<g filter="url(#filter0_d_1023_1380)">
<path fill-rule="evenodd" clip-rule="evenodd" d="M4.07129 3.93695C4.07129 3.14481 4.38754 2.38512 4.95046 1.825C5.51339 1.26487 6.27688 0.950199 7.07298 0.950199H36.9951C37.3896 0.949558 37.7804 1.02635 38.1451 1.17618C38.5097 1.32601 38.8411 1.54594 39.1202 1.82337C39.3994 2.1008 39.6207 2.43029 39.7717 2.79297C39.9227 3.15564 40.0003 3.54439 40.0001 3.93695V33.7102C40.0005 34.1028 39.9231 34.4917 39.7724 34.8545C39.6216 35.2174 39.4004 35.5471 39.1215 35.8248C38.8425 36.1025 38.5113 36.3228 38.1467 36.473C37.7821 36.6232 37.3914 36.7004 36.9968 36.7002H7.07298C6.67865 36.7002 6.28819 36.6229 5.9239 36.4727C5.55962 36.3225 5.22864 36.1023 4.94989 35.8248C4.67113 35.5473 4.45006 35.2179 4.29931 34.8553C4.14856 34.4927 4.07107 34.1042 4.07129 33.7118V3.93695ZM18.2926 14.5807H23.1576V17.0117C23.8599 15.6142 25.6563 14.3564 28.3559 14.3564C33.5313 14.3564 34.7577 17.1401 34.7577 22.2474V31.7082H29.5203V23.4109C29.5203 20.5022 28.8181 18.8609 27.0347 18.8609C24.5605 18.8609 23.5316 20.6306 23.5316 23.4109V31.7082H18.2926V14.5807ZM9.31036 31.4856H14.5494V14.3564H9.31036V31.4839V31.4856ZM15.299 8.7697C15.3089 9.21604 15.2291 9.65985 15.0643 10.0751C14.8994 10.4903 14.6529 10.8686 14.3391 11.1877C14.0254 11.5069 13.6507 11.7605 13.2371 11.9336C12.8236 12.1067 12.3794 12.1959 11.9307 12.1959C11.482 12.1959 11.0379 12.1067 10.6243 11.9336C10.2107 11.7605 9.83604 11.5069 9.52229 11.1877C9.20853 10.8686 8.962 10.4903 8.79717 10.0751C8.63233 9.65985 8.55251 9.21604 8.56239 8.7697C8.58178 7.89359 8.94517 7.05986 9.57474 6.44706C10.2043 5.83427 11.05 5.49113 11.9307 5.49113C12.8114 5.49113 13.6571 5.83427 14.2867 6.44706C14.9163 7.05986 15.2796 7.89359 15.299 8.7697Z" fill="#FFFEFA"/>
</g>
<defs>
<filter id="filter0_d_1023_1380" x="0.0712891" y="0.950195" width="43.9287" height="43.75" filterUnits="userSpaceOnUse" color-interpolation-filters="sRGB">
<feFlood flood-opacity="0" result="BackgroundImageFix"/>
<feColorMatrix in="SourceAlpha" type="matrix" values="0 0 0 0 0 0 0 0 0 0 0 0 0 0 0 0 0 0 127 0" result="hardAlpha"/>
<feOffset dy="4"/>
<feGaussianBlur stdDeviation="2"/>
<feComposite in2="hardAlpha" operator="out"/>
<feColorMatrix type="matrix" values="0 0 0 0 0 0 0 0 0 0 0 0 0 0 0 0 0 0 0.25 0"/>
<feBlend mode="normal" in2="BackgroundImageFix" result="effect1_dropShadow_1023_1380"/>
<feBlend mode="normal" in="SourceGraphic" in2="effect1_dropShadow_1023_1380" result="shape"/>
</filter>
</defs>
</svg>
