<svg width="35" height="35" viewBox="0 0 35 35" fill="none" xmlns="http://www.w3.org/2000/svg">
<path d="M17.5 29.1667C11.0688 29.1667 5.83334 23.9313 5.83334 17.5001C5.83334 11.0688 11.0688 5.83341 17.5 5.83341C23.9313 5.83341 29.1667 11.0688 29.1667 17.5001C29.1667 23.9313 23.9313 29.1667 17.5 29.1667ZM17.5 2.91675C15.5849 2.91675 13.6885 3.29396 11.9192 4.02684C10.1499 4.75972 8.54222 5.83392 7.18803 7.18811C4.45313 9.92301 2.91667 13.6323 2.91667 17.5001C2.91667 21.3678 4.45313 25.0771 7.18803 27.8121C8.54222 29.1662 10.1499 30.2404 11.9192 30.9733C13.6885 31.7062 15.5849 32.0834 17.5 32.0834C21.3677 32.0834 25.0771 30.547 27.812 27.8121C30.5469 25.0771 32.0833 21.3678 32.0833 17.5001C32.0833 15.585 31.7061 13.6886 30.9732 11.9193C30.2404 10.1499 29.1662 8.54229 27.812 7.18811C26.4578 5.83392 24.8501 4.75972 23.0808 4.02684C21.3115 3.29396 19.4151 2.91675 17.5 2.91675ZM18.9583 10.2084H16.0417V16.0417H10.2083V18.9584H16.0417V24.7917H18.9583V18.9584H24.7917V16.0417H18.9583V10.2084Z" fill="#646464"/>
</svg>
