<svg width="24" height="24" viewBox="0 0 24 24" fill="none" xmlns="http://www.w3.org/2000/svg">
<path d="M6.981 3C7.20455 2.54943 7.54951 2.17025 7.977 1.90522C8.40449 1.6402 8.89752 1.49985 9.4005 1.5H16.35C17.5833 1.5 18.766 1.98991 19.638 2.86195C20.5101 3.734 21 4.91674 21 6.15V17.2005C21.0002 17.7035 20.8598 18.1965 20.5948 18.624C20.3297 19.0515 19.9506 19.3965 19.5 19.62V6.15C19.5 5.31457 19.1681 4.51335 18.5774 3.92261C17.9866 3.33187 17.1854 3 16.35 3H6.981ZM7.2 4.5C6.48392 4.5 5.79716 4.78446 5.29081 5.29081C4.78446 5.79716 4.5 6.48392 4.5 7.2V21.75C4.50026 21.8778 4.53316 22.0034 4.59557 22.1148C4.65798 22.2263 4.74785 22.32 4.85663 22.387C4.96541 22.4541 5.08952 22.4922 5.21716 22.4978C5.34481 22.5034 5.47177 22.4762 5.586 22.419L11.25 19.59L16.9155 22.4205C17.0298 22.4774 17.1567 22.5043 17.2843 22.4984C17.4118 22.4926 17.5358 22.4543 17.6444 22.3871C17.753 22.32 17.8427 22.2262 17.9049 22.1147C17.9671 22.0032 17.9999 21.8777 18 21.75V7.2C18 6.48392 17.7155 5.79716 17.2092 5.29081C16.7028 4.78446 16.0161 4.5 15.3 4.5H7.2ZM6 7.2C6 6.88174 6.12643 6.57652 6.35147 6.35147C6.57652 6.12643 6.88174 6 7.2 6H15.3C15.6183 6 15.9235 6.12643 16.1485 6.35147C16.3736 6.57652 16.5 6.88174 16.5 7.2V20.535L11.586 18.0795C11.4817 18.0272 11.3667 18 11.25 18C11.1333 18 11.0183 18.0272 10.914 18.0795L6 20.535V7.2Z" fill="black"/>
</svg>
