<svg width="46" height="46" viewBox="0 0 46 46" fill="none" xmlns="http://www.w3.org/2000/svg">
<g filter="url(#filter0_d_1023_1382)">
<path d="M41.9008 4.77171C40.5074 5.52741 39.0106 6.03801 37.4371 6.26881C39.0607 5.07969 40.2754 3.20817 40.8545 1.00345C39.3291 2.11247 37.6596 2.89309 35.9186 3.31139C34.7479 1.78134 33.1971 0.767201 31.5072 0.426419C29.8173 0.0856374 28.0828 0.43728 26.5729 1.42675C25.063 2.41622 23.8622 3.98816 23.157 5.89852C22.4518 7.80888 22.2816 9.95077 22.6728 11.9917C19.5819 11.8017 16.5582 10.8184 13.7979 9.10553C11.0376 7.39267 8.60242 4.98854 6.65035 2.04917C5.98289 3.45844 5.5991 5.09237 5.5991 6.83251C5.59836 8.39904 5.91353 9.94156 6.51666 11.3232C7.11979 12.7049 7.99223 13.883 9.05656 14.753C7.82221 14.7049 6.6151 14.2967 5.53569 13.5623V13.6848C5.53557 15.8819 6.15649 18.0114 7.29309 19.712C8.4297 21.4125 10.012 22.5794 11.7715 23.0146C10.6264 23.3939 9.4259 23.4498 8.26061 23.178C8.75703 25.0685 9.72402 26.7216 11.0262 27.906C12.3284 29.0904 13.9005 29.7467 15.5226 29.7831C12.769 32.4289 9.36841 33.8641 5.86775 33.8578C5.24765 33.858 4.62807 33.8136 4.01221 33.725C7.56557 36.5214 11.702 38.0056 15.9264 37.9998C30.2268 37.9998 38.0445 23.5027 38.0445 10.9296C38.0445 10.5211 38.0361 10.1085 38.0211 9.70006C39.5418 8.35406 40.8544 6.68729 41.8974 4.77784L41.9008 4.77171Z" fill="#FFFEFA"/>
</g>
<defs>
<filter id="filter0_d_1023_1382" x="0.012207" y="0.299805" width="45.8887" height="45.7002" filterUnits="userSpaceOnUse" color-interpolation-filters="sRGB">
<feFlood flood-opacity="0" result="BackgroundImageFix"/>
<feColorMatrix in="SourceAlpha" type="matrix" values="0 0 0 0 0 0 0 0 0 0 0 0 0 0 0 0 0 0 127 0" result="hardAlpha"/>
<feOffset dy="4"/>
<feGaussianBlur stdDeviation="2"/>
<feComposite in2="hardAlpha" operator="out"/>
<feColorMatrix type="matrix" values="0 0 0 0 0 0 0 0 0 0 0 0 0 0 0 0 0 0 0.25 0"/>
<feBlend mode="normal" in2="BackgroundImageFix" result="effect1_dropShadow_1023_1382"/>
<feBlend mode="normal" in="SourceGraphic" in2="effect1_dropShadow_1023_1382" result="shape"/>
</filter>
</defs>
</svg>
