<svg width="580" height="193" viewBox="0 0 580 193" fill="none" xmlns="http://www.w3.org/2000/svg">
<rect width="580" height="193" rx="20" fill="#86E3CE"/>
<path d="M30.0936 193H33.2511C33.6197 193 33.9732 192.843 34.2339 192.566C34.4946 192.288 34.6412 191.911 34.6416 191.519V163.481C34.6412 163.089 34.4946 162.712 34.2339 162.434C33.9732 162.157 33.6197 162 33.2511 162H30.0936C29.7249 162 29.3715 162.157 29.1108 162.434C28.8501 162.712 28.7035 163.089 28.703 163.481V191.519C28.7035 191.911 28.8501 192.288 29.1108 192.566C29.3715 192.843 29.7249 193 30.0936 193Z" fill="#9D9D9D"/>
<path d="M36.0321 193H39.1895C39.5582 193 39.9117 192.843 40.1723 192.566C40.433 192.288 40.5797 191.911 40.5801 191.519V163.481C40.5797 163.089 40.433 162.712 40.1723 162.434C39.9117 162.157 39.5582 162 39.1895 162H36.0321C35.6634 162 35.3099 162.157 35.0492 162.434C34.7886 162.712 34.6419 163.089 34.6415 163.481V191.519C34.6419 191.911 34.7886 192.288 35.0493 192.566C35.3099 192.843 35.6634 193 36.0321 193Z" fill="#9D9D9D"/>
<path d="M45.4934 164.585C45.4934 164.585 46.789 176.391 33.7092 175.99C20.6295 175.589 25.7184 163.989 25.7184 163.989C25.7184 163.989 28.4517 161.812 35.3612 163.917C42.2706 166.023 45.4934 164.585 45.4934 164.585Z" fill="#FFFEFA"/>
<path d="M39.9223 145C40.5676 145 41.1986 144.814 41.7362 144.465L64.6333 129.631C64.9743 129.41 65.2116 129.065 65.2932 128.673C65.3748 128.28 65.294 127.872 65.0685 127.538L63.1342 124.677C63.0224 124.512 62.8783 124.369 62.7103 124.258C62.5423 124.147 62.3535 124.07 62.1549 124.03C61.9563 123.991 61.7517 123.99 61.5527 124.028C61.3537 124.066 61.1643 124.141 60.9953 124.251L38.0983 139.085C37.5072 139.467 37.0579 140.026 36.8171 140.679C36.5763 141.331 36.5569 142.042 36.7617 142.707C36.9665 143.371 37.3846 143.953 37.9539 144.366C38.5233 144.779 39.2136 145.001 39.9223 145Z" fill="#9D9D9D"/>
<path d="M35.6312 131C29.0716 131 23.754 125.851 23.754 119.5C23.754 113.149 29.0716 108 35.6312 108C42.1907 108 47.5083 113.149 47.5083 119.5C47.5083 125.851 42.1907 131 35.6312 131Z" fill="#9D9D9D"/>
<path d="M34.6535 125C35.3618 124.978 36.2433 124.951 36.9225 124.407C37.1247 124.239 37.2909 124.024 37.4093 123.777C37.5278 123.531 37.5956 123.259 37.6081 122.98C37.6204 122.783 37.5908 122.584 37.5217 122.401C37.4525 122.218 37.3457 122.055 37.2095 121.925C36.8548 121.596 36.3369 121.519 35.7787 121.699L36.357 117.064L35.9324 117L35.2526 122.449L35.6071 122.271C36.0181 122.064 36.5823 121.959 36.9329 122.284C37.019 122.369 37.0861 122.474 37.1289 122.592C37.1718 122.71 37.1892 122.837 37.1799 122.964C37.1695 123.171 37.1186 123.373 37.0305 123.557C36.9425 123.74 36.8194 123.901 36.6697 124.028C36.1412 124.451 35.4385 124.506 34.6416 124.53L34.6535 125Z" fill="#FFFEFA"/>
<path d="M23.7699 166.983C23.7699 166.983 22.7531 132.767 36.9888 135.116C51.2246 137.464 45.293 170.505 45.293 170.505C45.293 170.505 42.2425 176.543 34.7857 169.834C27.3289 163.125 23.7699 166.983 23.7699 166.983Z" fill="#FFFEFA"/>
<path d="M61.347 162C61.6457 162 61.9381 161.917 62.1889 161.762C62.4398 161.606 62.6385 161.385 62.761 161.123L64.1989 158.048C64.2821 157.87 64.3279 157.678 64.3338 157.483C64.3397 157.289 64.3055 157.094 64.2332 156.912C64.161 156.73 64.052 156.563 63.9125 156.422C63.7731 156.28 63.6059 156.166 63.4205 156.086L38.3077 145.278C37.9119 145.107 37.485 145.013 37.0513 145.001C36.6176 144.989 36.1857 145.059 35.7803 145.207C35.3748 145.355 35.0037 145.579 34.6882 145.864C34.3727 146.15 34.1189 146.492 33.9413 146.872C33.7637 147.252 33.6658 147.662 33.6533 148.078C33.6407 148.494 33.7137 148.908 33.868 149.297C34.0223 149.686 34.255 150.042 34.5528 150.345C34.8505 150.648 35.2075 150.891 35.6033 151.061L60.7161 161.87C60.9144 161.956 61.1294 162 61.347 162Z" fill="#9D9D9D"/>
<path d="M29.2986 108.889C31.6127 107.286 34.5333 108.375 36.7818 109.519C38.9656 110.63 41.4264 112.043 43.8972 110.973C44.8622 110.555 45.6465 109.738 45.7828 108.644C45.9452 107.341 45.1729 106.122 44.314 105.236C43.3805 104.325 42.293 103.594 41.104 103.078C39.9384 102.543 38.7105 102.162 37.4503 101.945C34.9539 101.505 32.3906 101.679 29.9738 102.455C27.557 103.23 25.3568 104.583 23.5563 106.401C21.8145 108.213 20.4687 110.381 19.6075 112.762C18.7464 115.143 18.3894 117.683 18.56 120.215C18.7565 122.914 19.6014 125.666 21.2966 127.785C22.8871 129.773 25.2687 131.17 27.8105 131.287C28.4334 131.316 29.0574 131.265 29.6673 131.133C30.1064 131.037 30.2941 131.725 29.8533 131.821C27.2059 132.397 24.4634 131.541 22.3637 129.856C20.1534 128.083 18.7972 125.398 18.2026 122.631C17.0647 117.337 18.4902 111.64 21.7569 107.401C23.37 105.29 25.4595 103.608 27.8474 102.499C30.3136 101.375 33.0077 100.871 35.7041 101.028C38.3932 101.166 41.002 102.009 43.2781 103.476C45.314 104.818 47.6086 107.664 45.9482 110.181C45.3273 111.122 44.2965 111.696 43.2264 111.932C41.9983 112.175 40.7279 112.062 39.5596 111.606C36.8997 110.648 34.4396 108.507 31.4623 108.831C30.8134 108.9 30.1914 109.131 29.6517 109.505C29.2782 109.764 28.9278 109.146 29.2986 108.889Z" fill="#FFFEFA"/>
<path d="M69.2189 152C69.3546 152 69.4885 151.969 69.6109 151.911C69.7333 151.852 69.841 151.767 69.9262 151.661L73.8063 146.916H130.522C131.081 146.916 131.616 146.693 132.011 146.299C132.405 145.904 132.627 145.368 132.628 144.81V111.106C132.627 110.548 132.405 110.013 132.011 109.618C131.616 109.223 131.081 109.001 130.522 109H70.399C69.8408 109.001 69.3056 109.223 68.9109 109.618C68.5162 110.013 68.2941 110.548 68.2935 111.106V151.078C68.292 151.268 68.3502 151.454 68.4598 151.609C68.5693 151.765 68.7248 151.882 68.9044 151.945C69.0053 151.981 69.1117 152 69.2189 152ZM130.522 109.468C130.957 109.469 131.373 109.641 131.68 109.949C131.987 110.256 132.16 110.672 132.16 111.106V144.81C132.16 145.244 131.987 145.661 131.68 145.968C131.373 146.275 130.957 146.448 130.522 146.448H73.5846L69.5641 151.364C69.505 151.437 69.425 151.489 69.335 151.514C69.2451 151.539 69.1496 151.536 69.0617 151.504C68.9738 151.473 68.8978 151.415 68.844 151.339C68.7902 151.262 68.7614 151.171 68.7614 151.078V111.106C68.7619 110.672 68.9345 110.256 69.2416 109.949C69.5486 109.641 69.9648 109.469 70.399 109.468H130.522Z" fill="#FFFEFA"/>
<path d="M77.3719 120H123.55C123.857 120 124.153 119.895 124.37 119.707C124.588 119.52 124.71 119.265 124.71 119C124.71 118.735 124.588 118.48 124.37 118.293C124.153 118.105 123.857 118 123.55 118H77.3719C77.0642 118 76.7691 118.105 76.5515 118.293C76.3339 118.48 76.2117 118.735 76.2117 119C76.2117 119.265 76.3339 119.52 76.5515 119.707C76.7691 119.895 77.0642 120 77.3719 120Z" fill="#FFFEFA"/>
<path d="M77.3719 128H123.55C123.857 128 124.153 127.895 124.37 127.707C124.588 127.52 124.71 127.265 124.71 127C124.71 126.735 124.588 126.48 124.37 126.293C124.153 126.105 123.857 126 123.55 126H77.3719C77.0642 126 76.7691 126.105 76.5515 126.293C76.3339 126.48 76.2117 126.735 76.2117 127C76.2117 127.265 76.3339 127.52 76.5515 127.707C76.7691 127.895 77.0642 128 77.3719 128Z" fill="#FFFEFA"/>
<path d="M77.3719 135H123.55C123.857 135 124.153 134.947 124.37 134.854C124.588 134.76 124.71 134.633 124.71 134.5C124.71 134.367 124.588 134.24 124.37 134.146C124.153 134.053 123.857 134 123.55 134H77.3719C77.0642 134 76.7691 134.053 76.5515 134.146C76.3339 134.24 76.2117 134.367 76.2117 134.5C76.2117 134.633 76.3339 134.76 76.5515 134.854C76.7691 134.947 77.0642 135 77.3719 135Z" fill="#FFFEFA"/>
<path d="M235.48 49.6078H251.701C252.203 49.6073 252.685 49.4059 253.041 49.0479C253.396 48.6899 253.596 48.2045 253.597 47.6982V37.3012C253.596 36.795 253.396 36.3096 253.041 35.9516C252.685 35.5936 252.203 35.3922 251.701 35.3916H235.48C234.977 35.3922 234.495 35.5936 234.14 35.9516C233.784 36.3096 233.584 36.795 233.584 37.3012V47.6982C233.584 48.2045 233.784 48.6899 234.14 49.0479C234.495 49.4059 234.977 49.6073 235.48 49.6078ZM251.701 35.816C252.092 35.8164 252.466 35.973 252.743 36.2515C253.019 36.5299 253.175 36.9075 253.175 37.3012V47.6982C253.175 48.092 253.019 48.4695 252.743 48.748C252.466 49.0264 252.092 49.183 251.701 49.1835H235.48C235.089 49.183 234.714 49.0264 234.437 48.748C234.161 48.4695 234.005 48.092 234.005 47.6982V37.3012C234.005 36.9075 234.161 36.5299 234.437 36.2515C234.714 35.973 235.089 35.8164 235.48 35.816H251.701Z" fill="#FFFEFA"/>
<path d="M243.677 42.4057C244.111 42.4066 244.534 42.2732 244.89 42.0238L253.029 36.292L252.788 35.9443L244.648 41.6761C244.367 41.8726 244.033 41.9791 243.691 41.9818C243.348 41.9845 243.013 41.8832 242.729 41.6912L234.35 35.9855L234.114 36.3371L242.493 42.0428C242.843 42.2801 243.255 42.4065 243.677 42.4057Z" fill="#FFFEFA"/>
<path d="M243.696 44.94C242.3 44.94 241.168 43.8001 241.168 42.3938C241.168 40.9876 242.3 39.8477 243.696 39.8477C245.092 39.8477 246.224 40.9876 246.224 42.3938C246.224 43.8001 245.092 44.94 243.696 44.94Z" fill="#FFFEFA"/>
<path d="M78.1807 40H95.0275C95.5495 39.9994 96.05 39.7869 96.4192 39.4092C96.7883 39.0314 96.996 38.5193 96.9966 37.9851V27.0149C96.996 26.4807 96.7883 25.9686 96.4192 25.5908C96.05 25.2131 95.5495 25.0006 95.0275 25H78.1807C77.6586 25.0006 77.1581 25.2131 76.789 25.5908C76.4198 25.9686 76.2122 26.4807 76.2116 27.0149V37.9851C76.2122 38.5193 76.4198 39.0314 76.789 39.4092C77.1581 39.7869 77.6586 39.9994 78.1807 40ZM95.0275 25.4478C95.4335 25.4482 95.8228 25.6135 96.1099 25.9073C96.397 26.2011 96.5585 26.5994 96.559 27.0149V37.9851C96.5585 38.4006 96.397 38.7989 96.1099 39.0927C95.8228 39.3865 95.4335 39.5518 95.0275 39.5522H78.1807C77.7747 39.5518 77.3854 39.3865 77.0982 39.0927C76.8111 38.7989 76.6496 38.4006 76.6492 37.9851V27.0149C76.6496 26.5994 76.8111 26.2011 77.0982 25.9073C77.3854 25.6135 77.7747 25.4482 78.1807 25.4478H95.0275Z" fill="#FFFEFA"/>
<path d="M309.665 141.606L321.766 146.209C322.141 146.351 322.556 146.337 322.921 146.171C323.286 146.005 323.57 145.699 323.711 145.322L326.601 137.566C326.741 137.188 326.727 136.769 326.561 136.402C326.395 136.034 326.092 135.747 325.717 135.604L313.616 131.001C313.241 130.859 312.826 130.873 312.461 131.039C312.097 131.205 311.813 131.51 311.671 131.888L308.782 139.644C308.641 140.021 308.655 140.44 308.821 140.808C308.987 141.176 309.29 141.463 309.665 141.606ZM325.599 135.92C325.891 136.031 326.127 136.255 326.255 136.541C326.384 136.827 326.395 137.153 326.286 137.447L323.396 145.202C323.287 145.496 323.066 145.734 322.782 145.863C322.498 145.992 322.175 146.003 321.884 145.892L309.783 141.29C309.492 141.178 309.255 140.955 309.127 140.669C308.998 140.383 308.987 140.057 309.096 139.763L311.986 132.007C312.095 131.714 312.316 131.476 312.6 131.347C312.884 131.218 313.207 131.207 313.499 131.318L325.599 135.92Z" fill="#FFFEFA"/>
<path d="M460.298 125.137L469.27 128.549C469.548 128.655 469.856 128.645 470.127 128.521C470.397 128.398 470.608 128.172 470.712 127.892L472.855 122.141C472.959 121.861 472.948 121.551 472.826 121.278C472.703 121.005 472.478 120.792 472.2 120.686L463.228 117.274C462.95 117.168 462.642 117.178 462.371 117.301C462.101 117.425 461.89 117.651 461.786 117.931L459.643 123.682C459.539 123.962 459.549 124.272 459.672 124.545C459.795 124.818 460.02 125.031 460.298 125.137ZM472.112 120.921C472.329 121.003 472.504 121.169 472.599 121.381C472.695 121.593 472.703 121.835 472.622 122.053L470.479 127.803C470.398 128.021 470.234 128.197 470.024 128.293C469.813 128.389 469.574 128.397 469.357 128.315L460.385 124.902C460.169 124.819 459.994 124.654 459.899 124.442C459.803 124.23 459.795 123.988 459.876 123.77L462.019 118.02C462.1 117.802 462.264 117.626 462.474 117.53C462.684 117.434 462.924 117.426 463.14 117.508L472.112 120.921Z" fill="#FFFEFA"/>
<path d="M538.246 94.0192L545.139 96.6411C545.353 96.7221 545.589 96.7144 545.797 96.6197C546.005 96.525 546.167 96.351 546.247 96.136L547.893 91.7178C547.973 91.5025 547.965 91.2639 547.871 91.0544C547.777 90.8448 547.604 90.6813 547.39 90.5998L540.497 87.9779C540.283 87.8969 540.046 87.9046 539.839 87.9993C539.631 88.094 539.469 88.2679 539.389 88.483L537.743 92.9012C537.663 93.1165 537.671 93.3551 537.765 93.5646C537.859 93.7742 538.032 93.9377 538.246 94.0192ZM547.323 90.7801C547.489 90.8435 547.623 90.9707 547.697 91.1337C547.77 91.2967 547.777 91.4822 547.714 91.6497L546.068 96.0679C546.006 96.2352 545.88 96.3705 545.718 96.4441C545.557 96.5177 545.373 96.5237 545.206 96.4607L538.313 93.8389C538.147 93.7755 538.012 93.6483 537.939 93.4853C537.866 93.3223 537.859 93.1367 537.922 92.9693L539.568 88.5511C539.63 88.3838 539.756 88.2485 539.918 88.1749C540.079 88.1012 540.263 88.0953 540.43 88.1583L547.323 90.7801Z" fill="#FFFEFA"/>
<path d="M406.223 53.3905L418.291 55.8525C418.665 55.9284 419.054 55.8517 419.371 55.6393C419.689 55.4269 419.91 55.0961 419.986 54.7195L421.531 46.9842C421.606 46.6075 421.53 46.216 421.319 45.8957C421.107 45.5754 420.779 45.3524 420.405 45.2757L408.336 42.8137C407.962 42.7379 407.574 42.8146 407.256 43.027C406.939 43.2394 406.718 43.5701 406.642 43.9467L405.096 51.682C405.021 52.0587 405.098 52.4502 405.309 52.7705C405.52 53.0908 405.849 53.3138 406.223 53.3905ZM420.342 45.5914C420.633 45.6511 420.888 45.8245 421.052 46.0736C421.217 46.3228 421.276 46.6272 421.218 46.9203L419.672 54.6555C419.613 54.9484 419.441 55.2057 419.194 55.3709C418.947 55.5361 418.645 55.5958 418.354 55.5368L406.286 53.0748C405.995 53.0151 405.739 52.8417 405.575 52.5926C405.411 52.3434 405.351 52.039 405.409 51.7459L406.955 44.0107C407.014 43.7178 407.186 43.4605 407.433 43.2953C407.68 43.1301 407.982 43.0704 408.273 43.1295L420.342 45.5914Z" fill="#FFFEFA"/>
<path d="M86.22 32C86.6736 32.0009 87.1166 31.8564 87.4889 31.5862L96.0068 25.3767L95.7542 25L87.2362 31.2095C86.9417 31.4224 86.5925 31.5378 86.2342 31.5407C85.8758 31.5437 85.5249 31.4339 85.2273 31.2259L76.4586 25.0446L76.2116 25.4255L84.9803 31.6068C85.3467 31.8639 85.7784 32.0008 86.22 32Z" fill="#FFFEFA"/>
<path d="M317.782 138.559C318.106 138.683 318.458 138.703 318.793 138.618L326.458 136.652L326.375 136.324L318.71 138.29C318.445 138.357 318.167 138.342 317.91 138.247C317.654 138.152 317.432 137.981 317.273 137.757L312.609 131.123L312.335 131.319L317 137.952C317.195 138.229 317.467 138.44 317.782 138.559Z" fill="#FFFEFA"/>
<path d="M466.316 122.878C466.556 122.97 466.817 122.985 467.065 122.922L472.749 121.464L472.687 121.221L467.004 122.679C466.807 122.728 466.601 122.717 466.411 122.646C466.221 122.576 466.056 122.449 465.939 122.283L462.48 117.364L462.277 117.509L465.736 122.428C465.88 122.633 466.082 122.79 466.316 122.878Z" fill="#FFFEFA"/>
<path d="M542.87 92.284C543.054 92.3544 543.255 92.3662 543.446 92.3177L547.812 91.1976L547.765 91.0108L543.398 92.1309C543.247 92.1689 543.089 92.1603 542.943 92.1061C542.797 92.0519 542.67 91.9546 542.58 91.8271L539.923 88.0481L539.767 88.1593L542.424 91.9383C542.535 92.0958 542.691 92.2162 542.87 92.284Z" fill="#FFFEFA"/>
<path d="M413.393 49.2765C413.715 49.3429 414.05 49.3079 414.351 49.1763L421.259 46.1474L421.131 45.852L414.224 48.881C413.985 48.9845 413.721 49.0131 413.466 48.9632C413.21 48.9132 412.976 48.787 412.793 48.6009L407.407 43.0841L407.18 43.3099L412.565 48.8267C412.79 49.0564 413.078 49.213 413.393 49.2765Z" fill="#FFFEFA"/>
<path d="M86.6042 35C85.2376 35 84.1298 33.8807 84.1298 32.5C84.1298 31.1193 85.2376 30 86.6042 30C87.9708 30 89.0786 31.1193 89.0786 32.5C89.0786 33.8807 87.9708 35 86.6042 35Z" fill="#FFFEFA"/>
<path d="M317.091 140.455C316.05 140.058 315.522 138.887 315.913 137.838C316.304 136.789 317.465 136.26 318.507 136.656C319.548 137.052 320.076 138.223 319.685 139.272C319.294 140.321 318.133 140.851 317.091 140.455Z" fill="#FFFEFA"/>
<path d="M465.804 124.283C465.032 123.989 464.641 123.121 464.931 122.343C465.221 121.565 466.081 121.173 466.854 121.466C467.626 121.76 468.017 122.629 467.727 123.406C467.437 124.184 466.576 124.577 465.804 124.283Z" fill="#FFFEFA"/>
<path d="M542.476 93.3638C541.883 93.1382 541.583 92.4708 541.805 91.8732C542.028 91.2756 542.689 90.9741 543.283 91.1998C543.876 91.4255 544.176 92.0928 543.954 92.6904C543.731 93.288 543.07 93.5895 542.476 93.3638Z" fill="#FFFEFA"/>
<path d="M413.03 51.1648C411.991 50.9529 411.318 49.933 411.527 48.8867C411.736 47.8405 412.748 47.1642 413.787 47.3761C414.825 47.588 415.498 48.6079 415.289 49.6541C415.08 50.7003 414.068 51.3767 413.03 51.1648Z" fill="#FFFEFA"/>
<path d="M139.061 105C142.614 105 145.495 102.09 145.495 98.5C145.495 94.9101 142.614 92 139.061 92C135.508 92 132.628 94.9101 132.628 98.5C132.628 102.09 135.508 105 139.061 105Z" fill="#FA897B"/>
<path d="M138.153 102C138.038 102 137.925 101.973 137.822 101.921C137.719 101.869 137.63 101.794 137.561 101.701L135.746 99.2553C135.687 99.1767 135.645 99.0873 135.62 98.9921C135.596 98.8969 135.591 98.7979 135.605 98.7005C135.618 98.6032 135.651 98.5096 135.7 98.425C135.75 98.3405 135.815 98.2666 135.893 98.2076C135.971 98.1486 136.06 98.1058 136.154 98.0814C136.248 98.057 136.346 98.0517 136.442 98.0656C136.539 98.0796 136.631 98.1126 136.715 98.1628C136.799 98.2129 136.872 98.2792 136.93 98.3579L138.118 99.9577L141.168 95.335C141.222 95.2529 141.291 95.1824 141.372 95.1274C141.453 95.0725 141.544 95.0342 141.639 95.0148C141.734 94.9953 141.833 94.9951 141.928 95.0141C142.024 95.0331 142.115 95.071 142.196 95.1256C142.277 95.1802 142.346 95.2504 142.401 95.3322C142.455 95.414 142.492 95.5058 142.511 95.6023C142.53 95.6989 142.53 95.7982 142.511 95.8947C142.492 95.9912 142.454 96.0829 142.4 96.1646L138.769 101.667C138.703 101.766 138.615 101.849 138.512 101.907C138.408 101.964 138.292 101.996 138.174 102C138.167 102 138.16 102 138.153 102Z" fill="#FFFEFA"/>
<path d="M103.925 25C106.111 25 107.884 23.2091 107.884 21C107.884 18.7909 106.111 17 103.925 17C101.738 17 99.9658 18.7909 99.9658 21C99.9658 23.2091 101.738 25 103.925 25Z" fill="#FA897B"/>
<path d="M103.366 23.1534C103.295 23.1534 103.225 23.1368 103.162 23.1048C103.099 23.0728 103.044 23.0264 103.002 22.9693L101.884 21.4643C101.848 21.416 101.822 21.361 101.807 21.3024C101.792 21.2438 101.789 21.1828 101.798 21.123C101.806 21.0631 101.826 21.0055 101.856 20.9534C101.887 20.9014 101.927 20.8559 101.975 20.8196C102.023 20.7833 102.078 20.7569 102.136 20.7419C102.194 20.727 102.254 20.7237 102.313 20.7323C102.372 20.7408 102.429 20.7612 102.481 20.792C102.532 20.8229 102.577 20.8637 102.613 20.9121L103.344 21.8966L105.221 19.0518C105.254 19.0013 105.297 18.9579 105.347 18.9241C105.396 18.8903 105.452 18.8668 105.511 18.8548C105.57 18.8428 105.63 18.8427 105.689 18.8544C105.748 18.8661 105.804 18.8894 105.854 18.923C105.904 18.9566 105.946 18.9998 105.98 19.0501C106.013 19.1005 106.036 19.157 106.048 19.2164C106.06 19.2758 106.059 19.3369 106.048 19.3963C106.036 19.4557 106.013 19.5121 105.979 19.5624L103.745 22.9485C103.705 23.0097 103.65 23.0603 103.586 23.0959C103.523 23.1315 103.451 23.1512 103.379 23.1532C103.374 23.1533 103.37 23.1534 103.366 23.1534Z" fill="#FFFEFA"/>
<path d="M258.328 33C259.968 33 261.297 31.6569 261.297 30C261.297 28.3431 259.968 27 258.328 27C256.688 27 255.358 28.3431 255.358 30C255.358 31.6569 256.688 33 258.328 33Z" fill="#FA897B"/>
<path d="M257.909 31.6155C257.856 31.6155 257.803 31.6031 257.756 31.5791C257.709 31.5551 257.667 31.5203 257.635 31.4774L256.798 30.3487C256.771 30.3125 256.751 30.2712 256.74 30.2273C256.729 30.1833 256.726 30.1376 256.732 30.0927C256.739 30.0478 256.754 30.0046 256.777 29.9656C256.799 29.9265 256.83 29.8924 256.866 29.8652C256.902 29.838 256.942 29.8182 256.986 29.8069C257.029 29.7957 257.075 29.7932 257.119 29.7997C257.164 29.8061 257.206 29.8214 257.245 29.8445C257.284 29.8677 257.317 29.8983 257.344 29.9346L257.892 30.673L259.3 28.5394C259.325 28.5015 259.357 28.4689 259.394 28.4436C259.432 28.4182 259.473 28.4006 259.518 28.3916C259.562 28.3826 259.607 28.3825 259.651 28.3913C259.695 28.4001 259.737 28.4175 259.775 28.4427C259.812 28.4679 259.844 28.5003 259.869 28.5381C259.894 28.5758 259.911 28.6182 259.92 28.6628C259.929 28.7073 259.929 28.7532 259.92 28.7977C259.911 28.8422 259.894 28.8846 259.869 28.9223L258.193 31.4618C258.163 31.5078 258.122 31.5457 258.074 31.5724C258.026 31.5991 257.973 31.6139 257.918 31.6154C257.915 31.6155 257.912 31.6155 257.909 31.6155Z" fill="#FFFEFA"/>
<path d="M335.529 134C337.169 134 338.498 132.657 338.498 131C338.498 129.343 337.169 128 335.529 128C333.889 128 332.56 129.343 332.56 131C332.56 132.657 333.889 134 335.529 134Z" fill="#FA897B"/>
<path d="M335.11 132.616C335.057 132.616 335.005 132.603 334.957 132.579C334.91 132.555 334.868 132.52 334.837 132.477L333.999 131.349C333.972 131.312 333.952 131.271 333.941 131.227C333.93 131.183 333.927 131.138 333.934 131.093C333.94 131.048 333.955 131.005 333.978 130.966C334.001 130.927 334.031 130.892 334.067 130.865C334.103 130.838 334.144 130.818 334.187 130.807C334.231 130.796 334.276 130.793 334.32 130.8C334.365 130.806 334.408 130.821 334.446 130.845C334.485 130.868 334.518 130.898 334.545 130.935L335.094 131.673L336.501 129.539C336.526 129.501 336.558 129.469 336.595 129.444C336.633 129.418 336.675 129.401 336.719 129.392C336.763 129.383 336.808 129.382 336.852 129.391C336.896 129.4 336.938 129.418 336.976 129.443C337.013 129.468 337.045 129.5 337.07 129.538C337.095 129.576 337.113 129.618 337.121 129.663C337.13 129.707 337.13 129.753 337.121 129.798C337.112 129.842 337.095 129.885 337.07 129.922L335.394 132.462C335.364 132.508 335.323 132.546 335.275 132.572C335.227 132.599 335.174 132.614 335.119 132.615C335.116 132.615 335.113 132.616 335.11 132.616Z" fill="#FFFEFA"/>
<path d="M427.269 43.7081C428.739 44.4426 430.52 43.834 431.247 42.3488C431.974 40.8636 431.371 39.0643 429.901 38.3298C428.431 37.5954 426.65 38.204 425.924 39.6892C425.197 41.1743 425.799 42.9737 427.269 43.7081Z" fill="#FA897B"/>
<path d="M427.501 42.2789C427.453 42.2551 427.412 42.2205 427.38 42.1778C427.348 42.135 427.326 42.0854 427.316 42.0327L427.061 40.6457C427.052 40.6011 427.053 40.5553 427.062 40.5109C427.071 40.4665 427.089 40.4244 427.115 40.387C427.14 40.3496 427.172 40.3176 427.21 40.2928C427.248 40.2681 427.29 40.251 427.334 40.2427C427.378 40.2344 427.423 40.235 427.467 40.2444C427.511 40.2538 427.553 40.2719 427.59 40.2975C427.627 40.3232 427.658 40.356 427.683 40.3941C427.707 40.4321 427.724 40.4746 427.732 40.5192L427.9 41.4266L430.098 40.1446C430.137 40.1218 430.18 40.1069 430.224 40.1009C430.269 40.0949 430.314 40.0978 430.357 40.1095C430.401 40.1212 430.442 40.1414 430.477 40.169C430.513 40.1966 430.543 40.2311 430.565 40.2704C430.588 40.3098 430.602 40.3532 430.608 40.3982C430.614 40.4433 430.611 40.489 430.599 40.5329C430.588 40.5767 430.568 40.6178 430.54 40.6538C430.513 40.6897 430.478 40.7199 430.439 40.7425L427.823 42.2684C427.776 42.296 427.723 42.3117 427.668 42.3143C427.613 42.3168 427.559 42.3061 427.509 42.283C427.507 42.2816 427.504 42.2803 427.501 42.2789Z" fill="#FFFEFA"/>
<path d="M476.602 120.136C477.439 120.554 478.453 120.207 478.868 119.361C479.282 118.515 478.938 117.49 478.101 117.072C477.264 116.654 476.249 117 475.835 117.846C475.421 118.692 475.764 119.717 476.602 120.136Z" fill="#FA897B"/>
<path d="M476.734 119.322C476.707 119.308 476.683 119.288 476.665 119.264C476.647 119.24 476.634 119.212 476.629 119.182L476.483 118.391C476.478 118.366 476.479 118.34 476.484 118.315C476.489 118.289 476.499 118.265 476.514 118.244C476.528 118.223 476.547 118.205 476.568 118.19C476.59 118.176 476.614 118.167 476.639 118.162C476.664 118.157 476.69 118.157 476.715 118.163C476.74 118.168 476.763 118.178 476.785 118.193C476.806 118.208 476.824 118.226 476.838 118.248C476.852 118.27 476.861 118.294 476.866 118.319L476.961 118.836L478.213 118.106C478.235 118.093 478.26 118.085 478.285 118.081C478.311 118.078 478.336 118.079 478.361 118.086C478.386 118.093 478.409 118.104 478.429 118.12C478.45 118.136 478.467 118.155 478.48 118.178C478.492 118.2 478.501 118.225 478.504 118.25C478.507 118.276 478.506 118.302 478.499 118.327C478.492 118.352 478.481 118.376 478.465 118.396C478.45 118.417 478.43 118.434 478.408 118.447L476.917 119.316C476.891 119.332 476.86 119.34 476.829 119.342C476.798 119.343 476.767 119.337 476.739 119.324C476.737 119.323 476.736 119.323 476.734 119.322Z" fill="#FFFEFA"/>
<path d="M550.834 90.8212C551.671 91.2396 552.685 90.8929 553.099 90.0469C553.514 89.2009 553.17 88.1759 552.333 87.7575C551.496 87.3392 550.481 87.6858 550.067 88.5318C549.653 89.3779 549.996 90.4028 550.834 90.8212Z" fill="#FA897B"/>
<path d="M550.966 90.0073C550.939 89.9938 550.915 89.974 550.897 89.9497C550.879 89.9254 550.866 89.8971 550.861 89.8671L550.715 89.077C550.71 89.0516 550.711 89.0255 550.716 89.0002C550.721 88.9749 550.731 88.9509 550.746 88.9296C550.76 88.9083 550.779 88.8901 550.8 88.876C550.822 88.8619 550.846 88.8522 550.871 88.8474C550.896 88.8427 550.922 88.843 550.947 88.8484C550.972 88.8537 550.995 88.864 551.017 88.8787C551.038 88.8933 551.056 88.912 551.07 88.9336C551.083 88.9553 551.093 88.9795 551.098 89.0049L551.193 89.5218L552.445 88.7915C552.467 88.7785 552.492 88.7701 552.517 88.7666C552.543 88.7632 552.568 88.7649 552.593 88.7715C552.618 88.7782 552.641 88.7897 552.661 88.8054C552.682 88.8212 552.699 88.8408 552.712 88.8632C552.724 88.8856 552.733 88.9104 552.736 88.936C552.739 88.9617 552.738 88.9877 552.731 89.0127C552.724 89.0377 552.713 89.0611 552.697 89.0816C552.681 89.1021 552.662 89.1192 552.64 89.1321L551.149 90.0013C551.122 90.017 551.092 90.026 551.061 90.0275C551.03 90.0289 550.999 90.0228 550.971 90.0097C550.969 90.0089 550.967 90.0081 550.966 90.0073Z" fill="#FFFEFA"/>
</svg>
