<?xml version="1.0" encoding="utf-8"?>
<!-- Generator: Adobe Illustrator 16.0.3, SVG Export Plug-In . SVG Version: 6.00 Build 0)  -->
<!DOCTYPE svg PUBLIC "-//W3C//DTD SVG 1.1//EN" "http://www.w3.org/Graphics/SVG/1.1/DTD/svg11.dtd">
<svg version="1.1" id="Layer_1" xmlns="http://www.w3.org/2000/svg" xmlns:xlink="http://www.w3.org/1999/xlink" x="0px" y="0px"
	 width="334px" height="400px" viewBox="0 0 334 400" enable-background="new 0 0 334 400" xml:space="preserve">
<g>
	<linearGradient id="SVGID_1_" gradientUnits="userSpaceOnUse" x1="47.7651" y1="79.8286" x2="274.1533" y2="222.6148">
		<stop  offset="0" style="stop-color:#7C411E"/>
		<stop  offset="0.2545" style="stop-color:#FEA621"/>
		<stop  offset="0.5394" style="stop-color:#F2F2B6"/>
		<stop  offset="0.8" style="stop-color:#FEA621"/>
		<stop  offset="1" style="stop-color:#7C411E"/>
	</linearGradient>
	<polygon fill="url(#SVGID_1_)" points="312.287,155.031 295.978,175.471 305.213,199.938 283.365,214.313 284.545,240.436 
		259.322,247.355 252.405,272.576 226.282,271.396 211.906,293.246 187.439,284.008 167,300.318 146.561,284.008 122.092,293.246 
		107.718,271.396 81.593,272.576 74.677,247.355 49.454,240.436 50.636,214.313 28.786,199.938 38.023,175.471 21.713,155.031 
		38.023,134.591 28.786,110.125 50.636,95.75 49.455,69.623 74.677,62.708 81.593,37.487 107.718,38.667 122.094,16.821 
		146.561,26.054 167,9.745 187.439,26.054 211.906,16.821 226.282,38.667 252.405,37.487 259.322,62.708 284.545,69.626 
		283.365,95.75 305.211,110.125 295.978,134.591 	"/>
	<linearGradient id="SVGID_2_" gradientUnits="userSpaceOnUse" x1="23.4375" y1="155.0313" x2="310.5615" y2="155.0313">
		<stop  offset="0" style="stop-color:#7C411E"/>
		<stop  offset="0.2545" style="stop-color:#FEA621"/>
		<stop  offset="0.5394" style="stop-color:#F2F2B6"/>
		<stop  offset="0.8" style="stop-color:#FEA621"/>
		<stop  offset="1" style="stop-color:#7C411E"/>
	</linearGradient>
	<polygon fill="url(#SVGID_2_)" points="310.474,177.929 291.143,195.541 296.407,221.16 272.569,231.912 269.615,257.896 
		243.62,260.752 232.813,284.568 207.199,279.285 189.565,298.594 166.856,285.615 144.103,298.502 126.489,279.172 
		100.872,284.439 90.12,260.6 64.135,257.646 61.278,231.65 37.462,220.844 42.746,195.231 23.438,177.593 36.415,154.89 
		23.527,132.133 42.856,114.519 37.592,88.903 61.434,78.152 64.382,52.167 90.381,49.312 101.187,25.495 126.8,30.777 
		144.439,11.468 167.144,24.447 189.897,11.561 207.512,30.89 233.127,25.623 243.883,49.463 269.866,52.417 272.719,78.413 
		296.535,89.218 291.255,114.828 310.562,132.471 297.588,155.173 	"/>
	<g>
		<linearGradient id="SVGID_3_" gradientUnits="userSpaceOnUse" x1="48.5459" y1="155.0303" x2="285.4551" y2="155.0303">
			<stop  offset="0" style="stop-color:#7C411E"/>
			<stop  offset="0.2545" style="stop-color:#FEA621"/>
			<stop  offset="0.5394" style="stop-color:#F2F2B6"/>
			<stop  offset="0.8" style="stop-color:#FEA621"/>
			<stop  offset="1" style="stop-color:#7C411E"/>
		</linearGradient>
		<path fill="url(#SVGID_3_)" d="M167,273.486c-65.316,0-118.454-53.143-118.454-118.458c0-65.315,53.138-118.454,118.454-118.454
			s118.455,53.139,118.455,118.454C285.455,220.344,232.316,273.486,167,273.486z M167,39.963
			c-63.446,0-115.063,51.619-115.063,115.066c0,63.446,51.617,115.065,115.063,115.065c63.448,0,115.066-51.619,115.066-115.065
			C282.066,91.582,230.448,39.963,167,39.963z"/>
	</g>
	<g>
		<radialGradient id="SVGID_4_" cx="217.2666" cy="275.6064" r="100.6692" gradientUnits="userSpaceOnUse">
			<stop  offset="0" style="stop-color:#1A1A1A"/>
			<stop  offset="0.928" style="stop-color:#060606"/>
			<stop  offset="1" style="stop-color:#000000"/>
		</radialGradient>
		<polygon fill="url(#SVGID_4_)" points="301.671,353.391 240.123,331.357 211.745,390.256 132.862,197.819 222.78,160.957 		"/>
		<g>
			<linearGradient id="SVGID_5_" gradientUnits="userSpaceOnUse" x1="136.8486" y1="288.9209" x2="219.3535" y2="288.9209">
				<stop  offset="0" style="stop-color:#7C411E"/>
				<stop  offset="0.2545" style="stop-color:#FEA621"/>
				<stop  offset="0.5394" style="stop-color:#F2F2B6"/>
				<stop  offset="0.8" style="stop-color:#FEA621"/>
				<stop  offset="1" style="stop-color:#7C411E"/>
			</linearGradient>
			<polygon fill="url(#SVGID_5_)" points="214.246,384.977 219.354,374.375 144.945,192.865 136.849,196.184 			"/>
			<linearGradient id="SVGID_6_" gradientUnits="userSpaceOnUse" x1="210.5586" y1="257.0459" x2="296.0459" y2="257.0459">
				<stop  offset="0" style="stop-color:#7C411E"/>
				<stop  offset="0.2545" style="stop-color:#FEA621"/>
				<stop  offset="0.5394" style="stop-color:#F2F2B6"/>
				<stop  offset="0.8" style="stop-color:#FEA621"/>
				<stop  offset="1" style="stop-color:#7C411E"/>
			</linearGradient>
			<polygon fill="url(#SVGID_6_)" points="296.046,351.441 284.968,347.477 210.559,165.967 218.654,162.65 			"/>
		</g>
		<radialGradient id="SVGID_7_" cx="118.6177" cy="275.6064" r="100.669" gradientUnits="userSpaceOnUse">
			<stop  offset="0" style="stop-color:#1A1A1A"/>
			<stop  offset="0.928" style="stop-color:#060606"/>
			<stop  offset="1" style="stop-color:#000000"/>
		</radialGradient>
		<polygon fill="url(#SVGID_7_)" points="34.214,353.391 95.762,331.357 124.139,390.256 203.021,197.819 113.104,160.957 		"/>
		<g>
			<linearGradient id="SVGID_8_" gradientUnits="userSpaceOnUse" x1="116.5313" y1="288.9209" x2="199.0371" y2="288.9209">
				<stop  offset="0" style="stop-color:#7C411E"/>
				<stop  offset="0.2545" style="stop-color:#FEA621"/>
				<stop  offset="0.5394" style="stop-color:#F2F2B6"/>
				<stop  offset="0.8" style="stop-color:#FEA621"/>
				<stop  offset="1" style="stop-color:#7C411E"/>
			</linearGradient>
			<polygon fill="url(#SVGID_8_)" points="121.643,384.977 116.531,374.375 190.94,192.865 199.037,196.184 			"/>
			<linearGradient id="SVGID_9_" gradientUnits="userSpaceOnUse" x1="39.8369" y1="257.0459" x2="125.3262" y2="257.0459">
				<stop  offset="0" style="stop-color:#7C411E"/>
				<stop  offset="0.2545" style="stop-color:#FEA621"/>
				<stop  offset="0.5394" style="stop-color:#F2F2B6"/>
				<stop  offset="0.8" style="stop-color:#FEA621"/>
				<stop  offset="1" style="stop-color:#7C411E"/>
			</linearGradient>
			<polygon fill="url(#SVGID_9_)" points="39.837,351.441 50.917,347.477 125.326,165.967 117.23,162.65 			"/>
		</g>
	</g>
	<radialGradient id="SVGID_10_" cx="167" cy="155.0313" r="121.667" gradientUnits="userSpaceOnUse">
		<stop  offset="0" style="stop-color:#1A1A1A"/>
		<stop  offset="1" style="stop-color:#000000"/>
	</radialGradient>
	<circle fill="url(#SVGID_10_)" cx="167" cy="155.03" r="121.668"/>
	<linearGradient id="SVGID_11_" gradientUnits="userSpaceOnUse" x1="55.3604" y1="155.0313" x2="278.6387" y2="155.0313">
		<stop  offset="0" style="stop-color:#7C411E"/>
		<stop  offset="0.2545" style="stop-color:#FEA621"/>
		<stop  offset="0.5394" style="stop-color:#F2F2B6"/>
		<stop  offset="0.8" style="stop-color:#FEA621"/>
		<stop  offset="1" style="stop-color:#7C411E"/>
	</linearGradient>
	<path fill="url(#SVGID_11_)" d="M167,43.393c-61.657,0-111.64,49.981-111.64,111.639c0,61.658,49.982,111.639,111.64,111.639
		c61.658,0,111.639-49.98,111.639-111.639C278.639,93.374,228.658,43.393,167,43.393z M167,245.688
		c-50.069,0-90.658-40.586-90.658-90.656c0-50.069,40.589-90.657,90.658-90.657c50.07,0,90.657,40.588,90.657,90.657
		C257.657,205.102,217.07,245.688,167,245.688z"/>
</g>
</svg>
